<svg width="143" height="143" viewBox="0 0 143 143" fill="none" xmlns="http://www.w3.org/2000/svg">
<path d="M116.187 47.6666V122.146C116.187 125.438 113.521 128.104 110.229 128.104H32.7708C29.4789 128.104 26.8125 125.438 26.8125 122.146V20.8541C26.8125 17.5621 29.4789 14.8958 32.7708 14.8958H83.4167L92.3542 38.7291L116.187 47.6666Z" fill="#FDE26B"/>
<path d="M83.4165 14.8958V41.7083C83.4165 45.0002 86.0829 47.6666 89.3748 47.6666H116.187L83.4165 14.8958Z" fill="url(#paint0_linear_713_86)"/>
<path d="M96.8229 71.5H46.1771C45.3548 71.5 44.6875 70.8326 44.6875 70.0104V67.0312C44.6875 66.209 45.3548 65.5416 46.1771 65.5416H96.8229C97.6452 65.5416 98.3125 66.209 98.3125 67.0312V70.0104C98.3125 70.8326 97.6452 71.5 96.8229 71.5Z" fill="white"/>
<path d="M90.8646 83.4167H46.1771C45.3548 83.4167 44.6875 82.7494 44.6875 81.9271V78.948C44.6875 78.1257 45.3548 77.4584 46.1771 77.4584H90.8646C91.6868 77.4584 92.3542 78.1257 92.3542 78.948V81.9271C92.3542 82.7494 91.6868 83.4167 90.8646 83.4167Z" fill="white"/>
<path d="M96.8229 95.3333H46.1771C45.3548 95.3333 44.6875 94.666 44.6875 93.8438V90.8646C44.6875 90.0423 45.3548 89.375 46.1771 89.375H96.8229C97.6452 89.375 98.3125 90.0423 98.3125 90.8646V93.8438C98.3125 94.666 97.6452 95.3333 96.8229 95.3333Z" fill="white"/>
<path d="M90.8646 107.25H46.1771C45.3548 107.25 44.6875 106.583 44.6875 105.76V102.781C44.6875 101.959 45.3548 101.292 46.1771 101.292H90.8646C91.6868 101.292 92.3542 101.959 92.3542 102.781V105.76C92.3542 106.583 91.6868 107.25 90.8646 107.25Z" fill="white"/>
<defs>
<linearGradient id="paint0_linear_713_86" x1="84.9925" y1="46.0906" x2="100.1" y2="30.9833" gradientUnits="userSpaceOnUse">
<stop stop-color="#FE8902"/>
<stop offset="1" stop-color="#97CAFF"/>
</linearGradient>
</defs>
</svg>
