<svg width="38" height="38" viewBox="0 0 38 38" fill="none" xmlns="http://www.w3.org/2000/svg">
<path d="M14.5189 0C10.7983 0 7.0778 1.41578 4.24668 4.24763C-1.41556 9.91135 -1.41556 19.1337 4.24668 24.7974C7.0778 27.6293 10.789 29.0458 14.5383 29.0458C18.2877 29.0458 21.9989 27.6293 24.83 24.7974C30.454 19.1337 30.4534 9.91135 24.7911 4.24763C21.96 1.41578 18.2395 0 14.5189 0ZM14.5002 2.25798C17.6374 2.25798 20.7745 3.4437 23.1465 5.85461C27.9288 10.6381 27.9286 18.4069 23.1846 23.1905C18.4023 27.974 10.6355 27.974 5.85324 23.1905C1.07094 18.4069 1.07094 10.6381 5.85324 5.85461C8.22526 3.48197 11.363 2.25798 14.5002 2.25798ZM14.5002 4.55408C11.8604 4.55408 9.37331 5.58703 7.49865 7.50044C5.7005 9.29905 4.70593 11.6336 4.59116 14.1593C4.5529 14.8098 5.05041 15.3072 5.7008 15.3455H5.73891C6.35104 15.3455 6.8484 14.8478 6.88666 14.2355C6.96318 12.2838 7.76616 10.4851 9.1052 9.10741C10.559 7.65322 12.4725 6.85018 14.5002 6.85018C15.1506 6.85018 15.648 6.35269 15.648 5.70213C15.648 5.05157 15.1506 4.55408 14.5002 4.55408ZM7.88123 18.9809C7.57683 18.9809 7.28489 19.1019 7.06965 19.3172C6.8544 19.5325 6.73348 19.8245 6.73348 20.129C6.73348 20.4335 6.8544 20.7255 7.06965 20.9408C7.28489 21.1561 7.57683 21.277 7.88123 21.277C8.18563 21.277 8.47757 21.1561 8.69281 20.9408C8.90806 20.7255 9.02898 20.4335 9.02898 20.129C9.02898 19.8245 8.90806 19.5325 8.69281 19.3172C8.47757 19.1019 8.18563 18.9809 7.88123 18.9809ZM26.3842 25.2952C26.0925 25.2952 25.8056 25.4102 25.5952 25.6398C25.1361 26.099 25.1361 26.8258 25.5952 27.2467L26.5516 28.2035C26.3221 28.6627 26.2071 29.1603 26.2071 29.6961C26.2071 30.6145 26.5513 31.4948 27.2017 32.1454L32.0991 36.9671C32.7877 37.6559 33.6671 38 34.547 38C35.427 38 36.3071 37.6557 36.9957 37.0052C38.3348 35.6658 38.3348 33.4848 36.9957 32.1454L32.0991 27.2467C31.4487 26.5962 30.5686 26.2519 29.6504 26.2519C29.1148 26.2519 28.6173 26.3669 28.1582 26.5965L27.2017 25.6398C26.9722 25.4102 26.676 25.2952 26.3842 25.2952ZM29.6504 28.5099C29.9565 28.5099 30.2624 28.6249 30.4537 28.8545L35.3122 33.7142C35.7713 34.1735 35.7713 34.9003 35.3122 35.3212C34.8531 35.7804 34.1265 35.7804 33.7056 35.3212L28.8471 30.4996C28.6176 30.2699 28.5027 29.9641 28.5027 29.658C28.5027 29.3518 28.6176 29.0458 28.8471 28.8545C29.0767 28.6249 29.3443 28.5099 29.6504 28.5099Z" fill="white"/>
</svg>
