<svg height="380.051" viewBox="0 0 380.051 380.051" width="380.051" xmlns="http://www.w3.org/2000/svg"><circle cx="190.32" cy="164.808" fill="#66b0f0" r="78.803"/><path d="m301.232 340.413a187.067 187.067 0 0 1 -219.156 2.343c13.817-39.843 35.524-74.9 58.524-97.548a94.371 94.371 0 0 0 102.381-1.891c23.483 22.012 44.781 56.822 58.251 97.096z" fill="#66b0f0"/><path d="m190.026 380.051a188.705 188.705 0 0 1 -109.685-34.851c-.835-.582-1.677-1.186-2.511-1.8a189.745 189.745 0 0 1 -77.83-153.375c0-104.78 85.246-190.025 190.026-190.025s190.025 85.245 190.025 190.025a188.05 188.05 0 0 1 -20.331 85.609 191.785 191.785 0 0 1 -54.386 65.45c-.771.588-1.54 1.164-2.319 1.74a188.482 188.482 0 0 1 -112.989 37.227zm0-374.051c-101.472 0-184.026 82.554-184.026 184.025a183.744 183.744 0 0 0 75.39 148.545c.8.592 1.595 1.163 2.4 1.724a184.066 184.066 0 0 0 215.657-2.294c.758-.56 1.5-1.118 2.246-1.686a185.734 185.734 0 0 0 52.673-63.388 182.112 182.112 0 0 0 19.685-82.9c0-101.472-82.551-184.026-184.025-184.026z" fill="#ffcf2d"/></svg>