<svg width="3687" height="3025" viewBox="0 0 3687 3025" fill="none" xmlns="http://www.w3.org/2000/svg">
<g filter="url(#filter0_d_746_5)">
<rect x="723" y="22" width="2334" height="2395" rx="100" fill="white"/>
</g>
<path d="M398.645 2882.79L347.573 3024.86H707.552C707.552 3024.86 688.98 2989.27 627.694 2962.96C566.098 2936.65 509.146 2882.79 509.146 2882.79H398.645Z" fill="#A1C3FC"/>
<path d="M269.263 2189.75C269.263 2189.75 199.62 2323.16 315.073 2400.23C430.526 2477.31 551.241 2522.81 483.455 2572.02C415.669 2621.24 389.978 2663.64 389.978 2714.71C389.978 2765.79 360.264 2758.67 330.859 2784.36C301.454 2810.05 289.382 2851.22 300.525 2884.03L509.146 2883.1C509.146 2883.1 714.361 2596.78 727.052 2555.62C740.671 2511.97 740.671 2480.71 648.432 2409.21C535.765 2321.92 428.669 2226.28 428.669 2226.28L269.263 2189.75Z" fill="#428DFC"/>
<path opacity="0.86" d="M300.525 2300.25C300.525 2300.56 300.835 2300.56 301.144 2300.56C301.454 2300.56 301.454 2300.25 301.454 2299.95C301.454 2299.64 301.144 2299.64 300.835 2299.64C300.525 2299.95 300.525 2300.25 300.525 2300.25ZM311.359 2295.92C311.359 2296.23 311.668 2296.23 311.978 2296.23C312.287 2296.23 312.287 2295.92 312.287 2295.61C312.287 2295.3 311.978 2295.3 311.668 2295.3C311.359 2295.3 311.359 2295.61 311.359 2295.92ZM322.502 2291.28C322.502 2291.59 322.811 2291.59 323.121 2291.59C323.43 2291.59 323.43 2291.28 323.43 2290.97C323.43 2290.66 323.121 2290.66 322.811 2290.66C322.502 2290.97 322.192 2291.28 322.502 2291.28ZM333.335 2286.94C333.335 2287.25 333.644 2287.25 333.954 2287.25C334.264 2287.25 334.264 2286.94 334.264 2286.64C334.264 2286.33 333.954 2286.33 333.644 2286.33C333.335 2286.33 333.335 2286.64 333.335 2286.94ZM335.811 2335.85C336.121 2335.85 336.43 2335.85 336.43 2335.54C336.43 2335.23 336.43 2334.92 336.121 2334.92C335.811 2334.92 335.502 2334.92 335.502 2335.23C335.502 2335.54 335.811 2335.85 335.811 2335.85ZM340.454 2325.02C340.764 2325.02 341.073 2325.02 341.073 2324.71C341.073 2324.4 341.073 2324.09 340.764 2324.09C340.454 2324.09 340.144 2324.09 340.144 2324.4C340.144 2324.71 340.145 2325.02 340.454 2325.02ZM345.097 2314.18C345.406 2314.18 345.716 2314.18 345.716 2313.87C345.716 2313.56 345.716 2313.25 345.406 2313.25C345.097 2313.25 344.787 2313.25 344.787 2313.56C344.787 2313.87 344.787 2313.87 345.097 2314.18ZM349.74 2303.35C350.049 2303.35 350.359 2303.35 350.359 2303.04C350.359 2302.73 350.359 2302.42 350.049 2302.42C349.74 2302.42 349.43 2302.42 349.43 2302.73C349.121 2302.73 349.43 2303.04 349.74 2303.35ZM385.335 2335.85C385.335 2336.16 385.645 2336.16 385.954 2336.16C386.264 2336.16 386.264 2335.85 386.264 2335.54C386.264 2335.23 385.954 2335.23 385.645 2335.23C385.335 2335.23 385.335 2335.54 385.335 2335.85ZM318.787 2316.97C319.097 2317.28 319.406 2317.28 319.406 2316.97C319.406 2316.66 319.716 2316.35 319.406 2316.35C319.097 2316.35 318.787 2316.04 318.787 2316.35V2316.97C318.787 2316.97 318.787 2316.66 318.787 2316.97ZM327.144 2308.61H327.763C327.763 2308.61 327.763 2308.3 327.763 2307.99V2307.68C327.454 2307.37 327.144 2307.37 327.144 2307.68C327.144 2307.99 327.144 2308.3 327.144 2308.61V2308.61ZM335.811 2300.25H336.43C336.74 2299.95 336.74 2299.64 336.43 2299.64C336.121 2299.64 335.811 2299.33 335.811 2299.64C335.502 2299.64 335.502 2299.95 335.811 2300.25ZM344.168 2291.9C344.168 2292.21 344.787 2292.21 344.787 2291.9C345.097 2291.59 345.097 2291.28 344.787 2291.28C344.478 2290.97 344.168 2290.97 344.168 2291.28C343.859 2291.28 343.859 2291.59 344.168 2291.9ZM360.264 2334.3C360.264 2334.61 360.573 2334.92 360.883 2334.92C361.192 2334.92 361.502 2334.61 361.502 2334.3C361.502 2333.99 361.192 2333.68 360.883 2333.68C360.573 2333.68 360.264 2333.99 360.264 2334.3ZM360.264 2322.54C360.264 2322.85 360.573 2323.16 360.883 2323.16C361.192 2323.16 361.502 2323.16 361.502 2322.54C361.502 2322.23 361.192 2321.92 360.883 2321.92C360.573 2321.92 360.264 2322.23 360.264 2322.54ZM271.43 2338.64C271.739 2338.95 272.358 2339.26 272.668 2338.64C272.977 2338.33 273.287 2337.71 272.668 2337.4C272.358 2337.09 271.739 2336.78 271.43 2337.4C271.12 2337.71 271.12 2338.33 271.43 2338.64ZM288.454 2324.09C288.763 2324.4 289.382 2324.71 289.692 2324.09C290.001 2323.78 290.311 2323.16 289.692 2322.85C289.382 2322.54 288.763 2322.23 288.454 2322.85C288.144 2323.16 288.144 2323.78 288.454 2324.09ZM305.478 2309.54C305.787 2309.85 306.406 2310.16 306.716 2309.54C307.025 2309.23 307.335 2308.61 306.716 2308.3C306.097 2307.99 305.787 2307.68 305.478 2308.3C305.168 2308.61 304.859 2308.92 305.478 2309.54ZM322.192 2294.68C322.502 2294.99 322.811 2294.99 323.121 2294.99H323.43C323.43 2294.99 323.74 2294.68 323.74 2294.37C323.74 2294.06 323.74 2293.75 323.43 2293.45C323.121 2293.14 322.502 2292.83 322.192 2293.45C321.882 2293.75 321.882 2294.37 322.192 2294.68ZM338.597 2394.97C338.597 2395.59 338.906 2395.9 339.525 2395.9C340.144 2395.9 340.454 2395.59 340.454 2394.97C340.454 2394.35 340.144 2394.04 339.525 2394.04C339.216 2394.04 338.597 2394.35 338.597 2394.97ZM340.144 2372.68C340.144 2373.3 340.454 2373.61 341.073 2373.61C341.692 2373.61 342.002 2373.3 342.002 2372.68C342.002 2372.07 341.692 2371.76 341.073 2371.76C340.764 2371.76 340.454 2372.07 340.144 2372.68ZM342.002 2350.09C342.002 2350.71 342.311 2351.02 342.93 2351.02C343.549 2351.02 343.859 2350.71 343.859 2350.09C343.859 2349.47 343.549 2349.16 342.93 2349.16C342.311 2349.47 342.002 2349.78 342.002 2350.09ZM343.549 2327.8C343.549 2328.42 343.859 2328.73 344.478 2328.73C345.097 2328.73 345.406 2328.42 345.406 2327.8C345.406 2327.18 345.097 2326.87 344.478 2326.87C343.859 2326.87 343.549 2327.49 343.549 2327.8ZM345.097 2305.52C345.097 2306.14 345.406 2306.45 346.025 2306.45C346.645 2306.45 346.954 2306.14 346.954 2305.52C346.954 2304.9 346.645 2304.59 346.025 2304.59C345.406 2304.59 345.097 2305.21 345.097 2305.52ZM261.215 2300.25C261.215 2300.87 261.834 2300.87 262.454 2300.87C263.073 2300.87 263.073 2300.25 263.073 2299.64C263.073 2299.02 262.454 2299.02 261.834 2299.02C261.525 2299.33 261.215 2299.64 261.215 2300.25ZM282.573 2293.14C282.573 2293.75 283.192 2293.75 283.811 2293.75C284.43 2293.75 284.43 2293.14 284.43 2292.52C284.43 2291.9 283.811 2291.9 283.192 2291.9C282.573 2292.21 282.573 2292.83 282.573 2293.14ZM303.93 2286.02C303.93 2286.64 304.549 2286.64 305.168 2286.64C305.787 2286.64 305.787 2286.02 305.787 2285.4C305.787 2284.78 305.168 2284.78 304.549 2284.78C303.93 2285.09 303.62 2285.71 303.93 2286.02ZM296.192 2372.99C296.811 2373.3 297.12 2372.99 297.43 2372.38C297.739 2371.76 297.43 2371.45 296.811 2371.14C296.192 2370.83 295.882 2371.14 295.573 2371.76C295.263 2372.38 295.882 2372.68 296.192 2372.99ZM306.097 2352.87C306.716 2353.18 307.025 2352.87 307.335 2352.26C307.644 2351.64 307.335 2351.33 306.716 2351.02C306.097 2350.71 305.787 2351.02 305.478 2351.64C305.478 2352.26 305.787 2352.57 306.097 2352.87ZM316.311 2333.06C316.93 2333.37 317.24 2333.06 317.549 2332.45C317.859 2331.83 317.549 2331.52 316.93 2331.21C316.311 2330.9 316.001 2331.21 315.692 2331.52C315.382 2331.83 315.692 2332.76 316.311 2333.06ZM326.216 2312.95C326.835 2313.25 327.144 2312.95 327.454 2312.64C327.763 2312.02 327.454 2311.71 327.144 2311.4C326.525 2311.09 326.216 2311.4 325.906 2311.71C325.597 2312.02 325.906 2312.64 326.216 2312.95ZM336.121 2292.83C336.74 2293.14 337.049 2292.83 337.359 2292.21C337.668 2291.59 337.359 2291.28 336.74 2290.97C336.121 2290.66 335.811 2290.97 335.502 2291.28C335.502 2292.21 335.811 2292.83 336.121 2292.83ZM381.002 2379.18C381.002 2379.8 381.621 2379.8 382.24 2379.8C382.859 2379.8 382.859 2379.18 382.859 2378.57C382.859 2377.95 382.24 2377.95 381.93 2377.95C381.311 2378.26 381.002 2378.88 381.002 2379.18V2379.18ZM374.192 2358.14C374.502 2358.76 374.811 2358.76 375.43 2358.76C376.049 2358.76 376.049 2358.14 376.049 2357.52C376.049 2356.9 375.43 2356.9 374.811 2356.9C374.192 2356.9 373.883 2357.52 374.192 2358.14ZM367.073 2336.78C367.073 2337.4 367.692 2337.4 368.002 2337.4C368.621 2337.4 368.621 2336.78 368.621 2336.16C368.621 2335.54 368.002 2335.54 367.383 2335.54C367.073 2335.85 366.764 2336.16 367.073 2336.78ZM359.954 2315.42C359.954 2316.04 360.573 2316.04 361.192 2316.04C361.811 2316.04 361.811 2315.42 361.811 2315.11C361.811 2314.49 361.192 2314.49 360.573 2314.49C359.954 2314.49 359.645 2315.11 359.954 2315.42ZM248.525 2289.42C248.525 2289.11 248.834 2289.11 248.525 2288.8C248.525 2288.8 248.525 2288.49 248.215 2288.49C248.525 2288.8 248.525 2289.11 248.525 2289.42V2289.42ZM266.477 2284.78C266.477 2285.4 267.096 2285.4 267.406 2285.4C268.025 2285.4 268.025 2284.78 268.025 2284.47C268.025 2283.85 267.406 2283.85 267.096 2283.85C266.787 2283.85 266.477 2284.16 266.477 2284.78ZM285.977 2280.44C285.977 2281.06 286.597 2281.06 286.906 2281.06C287.525 2281.06 287.525 2280.44 287.525 2280.14C287.525 2279.52 286.906 2279.52 286.597 2279.52C286.287 2279.52 285.977 2279.83 285.977 2280.44ZM276.692 2362.78C277.001 2363.09 277.62 2362.78 277.93 2362.47C278.239 2362.16 277.93 2361.54 277.62 2361.23C277.311 2360.92 276.692 2361.23 276.382 2361.54C276.382 2361.85 276.382 2362.47 276.692 2362.78ZM287.525 2345.76C287.835 2346.07 288.454 2345.76 288.763 2345.45C289.073 2345.14 288.763 2344.52 288.454 2344.21C288.144 2343.9 287.525 2344.21 287.216 2344.52C286.906 2345.14 286.906 2345.45 287.525 2345.76ZM297.739 2328.42C297.739 2328.73 297.739 2328.73 298.049 2329.04C298.359 2329.35 298.978 2329.04 299.287 2328.73C299.597 2328.42 299.287 2327.8 298.978 2327.49C298.668 2327.49 298.359 2327.49 298.049 2327.49C297.739 2327.49 297.739 2327.49 297.739 2327.8C297.43 2327.8 297.43 2328.11 297.739 2328.42V2328.42ZM308.573 2312.02C308.882 2312.33 309.501 2312.02 309.811 2311.71C310.12 2311.4 309.811 2310.78 309.501 2310.47C309.192 2310.16 308.573 2310.47 308.263 2310.78C307.954 2311.09 308.263 2311.71 308.573 2312.02ZM319.097 2294.99C319.406 2295.3 320.025 2294.99 320.335 2294.68C320.644 2294.37 320.335 2293.75 320.025 2293.45C319.716 2293.14 319.097 2293.45 318.787 2293.75C318.787 2294.06 318.787 2294.68 319.097 2294.99ZM359.335 2376.09C359.335 2376.71 359.954 2376.71 360.264 2376.71C360.883 2376.71 360.883 2376.09 360.883 2375.78C360.883 2375.16 360.264 2375.16 359.954 2375.16C359.645 2375.16 359.335 2375.47 359.335 2376.09ZM355.002 2356.59C355.002 2357.21 355.621 2357.21 355.93 2357.21C356.549 2357.21 356.549 2356.59 356.549 2356.28C356.549 2355.66 355.93 2355.66 355.621 2355.66C355.311 2355.66 354.692 2355.97 355.002 2356.59ZM350.359 2337.09C350.359 2337.71 350.978 2337.71 351.287 2337.71C351.906 2337.71 351.906 2337.09 351.906 2336.78C351.906 2336.16 351.287 2336.16 350.978 2336.16C350.668 2336.16 350.359 2336.78 350.359 2337.09ZM346.025 2317.59C346.025 2318.21 346.645 2318.21 346.954 2318.21C347.573 2318.21 347.573 2317.59 347.573 2317.28C347.573 2316.66 346.954 2316.66 346.645 2316.66C346.335 2316.66 345.716 2317.28 346.025 2317.59V2317.59ZM341.383 2298.09C341.383 2298.71 342.002 2298.71 342.311 2298.71C342.93 2298.71 342.93 2298.09 342.93 2297.78C342.93 2297.16 342.311 2297.16 342.002 2297.16C341.692 2297.16 341.383 2297.78 341.383 2298.09ZM268.335 2314.8C268.644 2315.11 268.954 2315.42 269.573 2315.11C269.882 2314.8 270.192 2314.49 269.882 2314.18C269.573 2313.87 269.263 2313.56 268.644 2313.87C268.335 2313.87 268.025 2314.49 268.335 2314.8ZM284.739 2303.35C285.049 2303.66 285.358 2303.97 285.977 2303.66C286.287 2303.35 286.597 2302.73 286.287 2302.42C285.977 2302.11 285.358 2301.8 285.049 2302.11C284.43 2302.42 284.43 2303.04 284.739 2303.35ZM300.835 2291.59C301.144 2291.9 301.763 2292.21 302.073 2291.9C302.382 2291.59 302.692 2290.97 302.382 2290.66C302.073 2290.35 301.454 2290.04 301.144 2290.66C300.835 2290.66 300.835 2291.28 300.835 2291.59ZM316.621 2367.11C316.621 2367.73 316.93 2368.04 317.24 2368.04C317.859 2368.04 318.168 2367.73 318.168 2367.42C318.168 2366.8 317.859 2366.49 317.549 2366.49C316.93 2366.18 316.621 2366.49 316.621 2367.11ZM319.716 2347.3C319.716 2347.92 320.025 2348.23 320.335 2348.23C320.954 2348.23 321.263 2347.92 321.263 2347.61C321.263 2346.99 320.954 2346.68 320.644 2346.68C320.335 2346.37 320.025 2346.68 319.716 2347.3ZM323.121 2327.49C323.121 2328.11 323.43 2328.42 323.74 2328.42C324.049 2328.42 324.668 2328.11 324.668 2327.8C324.668 2327.18 324.359 2326.87 324.049 2326.87C323.74 2326.87 323.43 2327.18 323.121 2327.49ZM326.525 2307.68C326.525 2308.3 326.835 2308.61 327.144 2308.61C327.454 2308.61 327.763 2308.61 327.763 2308.3C327.763 2307.99 328.073 2307.99 328.073 2307.68C328.073 2307.06 327.763 2306.75 327.454 2306.75C326.835 2307.06 326.525 2307.37 326.525 2307.68V2307.68ZM329.621 2288.18C329.621 2288.8 329.93 2289.11 330.24 2289.11C330.859 2289.11 331.168 2288.8 331.168 2288.49V2288.18C331.168 2288.18 330.859 2287.87 330.859 2287.56C330.859 2287.56 330.549 2287.56 330.549 2287.25C330.24 2287.25 329.621 2287.87 329.621 2288.18V2288.18ZM391.526 2351.02C391.835 2351.33 392.145 2351.64 392.454 2351.33C392.764 2351.02 393.073 2350.71 392.764 2350.09C392.454 2349.78 391.835 2349.47 391.526 2350.09C391.216 2350.09 391.216 2350.71 391.526 2351.02V2351.02ZM379.764 2334.61C380.073 2334.92 380.692 2335.23 381.002 2334.92C381.311 2334.61 381.621 2333.99 381.002 2333.68C380.692 2333.37 380.383 2333.06 379.764 2333.37C379.764 2333.68 379.454 2334.3 379.764 2334.61ZM277.93 2313.25C278.239 2313.56 278.549 2313.25 278.549 2313.25C278.858 2312.95 278.549 2312.64 278.549 2312.64C278.239 2312.33 277.93 2312.64 277.93 2312.64V2313.25ZM285.977 2304.59C286.287 2304.9 286.597 2304.59 286.597 2304.59C286.906 2304.28 286.597 2303.97 286.597 2303.97C286.287 2303.66 285.977 2303.97 285.977 2303.97V2304.59ZM294.335 2295.92H294.954C294.954 2295.92 295.263 2295.3 294.954 2295.3C294.644 2295.3 294.335 2295.3 294.335 2295.3C294.025 2295.3 294.025 2295.61 294.335 2295.92C294.335 2295.92 294.025 2295.92 294.335 2295.92ZM302.382 2287.25H303.001C303.311 2286.94 303.311 2286.64 303.001 2286.64C302.692 2286.64 302.382 2286.64 302.382 2286.64C302.073 2286.94 302.073 2287.25 302.382 2287.25ZM324.359 2330.28C324.359 2330.59 324.668 2330.9 324.978 2330.9C325.287 2330.9 325.597 2330.59 325.597 2330.28C325.597 2329.97 325.287 2329.66 324.978 2329.66C324.668 2329.66 324.359 2329.97 324.359 2330.28ZM324.049 2318.52C324.049 2318.83 324.359 2319.14 324.668 2319.14C324.978 2319.14 325.287 2318.83 325.287 2318.52C325.287 2318.21 324.978 2317.9 324.668 2317.9C324.359 2317.9 324.049 2318.21 324.049 2318.52ZM323.74 2306.75C323.74 2307.06 324.049 2307.37 324.359 2307.37C324.668 2307.37 324.978 2307.06 324.978 2306.75C324.978 2306.45 324.668 2306.14 324.359 2306.14C323.74 2306.14 323.74 2306.45 323.74 2306.75ZM323.43 2294.99C323.43 2295.3 323.74 2295.61 324.049 2295.61C324.359 2295.61 324.668 2295.3 324.668 2294.99C324.668 2294.68 324.668 2294.68 324.359 2294.37C323.43 2294.37 323.43 2294.68 323.43 2294.99V2294.99ZM268.335 2289.11C268.335 2289.42 268.644 2289.42 268.954 2289.42C269.263 2289.42 269.263 2288.8 269.263 2288.8C269.263 2288.49 268.954 2288.49 268.644 2288.49C268.335 2288.8 268.335 2288.8 268.335 2289.11ZM279.168 2284.16C279.168 2284.47 279.477 2284.47 279.787 2284.47C280.096 2284.47 280.096 2284.16 280.096 2283.85C280.096 2283.54 279.787 2283.54 279.477 2283.54C279.168 2283.85 279.168 2284.16 279.168 2284.16ZM290.001 2279.21C290.001 2279.52 290.311 2279.52 290.62 2279.52C290.93 2279.52 290.93 2279.21 290.93 2278.9C290.93 2278.59 290.62 2278.59 290.311 2278.59C290.001 2278.9 290.001 2279.21 290.001 2279.21ZM301.454 2320.37C301.763 2320.37 302.073 2320.37 302.073 2320.06C302.073 2319.76 302.073 2319.45 301.763 2319.45C301.454 2319.45 301.144 2319.45 301.144 2319.76C301.144 2320.06 301.454 2320.37 301.454 2320.37ZM305.787 2309.54C306.097 2309.54 306.406 2309.54 306.406 2309.23C306.406 2308.92 306.406 2308.61 306.097 2308.61C305.787 2308.61 305.478 2308.61 305.478 2308.92C305.478 2309.23 305.478 2309.23 305.787 2309.54ZM309.811 2298.4C310.12 2298.4 310.43 2298.4 310.43 2298.09C310.43 2297.78 310.43 2297.47 310.12 2297.47C309.811 2297.47 309.501 2297.47 309.501 2297.78C309.501 2298.09 309.501 2298.09 309.811 2298.4ZM313.835 2287.25C314.144 2287.25 314.454 2287.25 314.454 2286.94C314.454 2286.64 314.454 2286.33 314.144 2286.33C313.835 2286.33 313.525 2286.33 313.525 2286.64C313.525 2286.94 313.835 2287.25 313.835 2287.25ZM346.335 2318.83C346.335 2319.14 346.645 2319.14 346.954 2319.14C347.264 2319.14 347.264 2318.83 347.264 2318.52C347.264 2318.21 346.954 2318.21 346.645 2318.21C346.335 2318.52 346.335 2318.83 346.335 2318.83V2318.83ZM341.383 2308.3C341.383 2308.61 342.002 2308.61 342.002 2308.61C342.311 2308.61 342.311 2308.3 342.311 2307.99C342.311 2307.68 342.002 2307.68 341.692 2307.68C341.383 2307.68 341.383 2307.99 341.383 2308.3ZM336.74 2297.78C336.74 2298.09 337.359 2298.09 337.359 2298.09C337.668 2298.09 337.668 2297.47 337.668 2297.47C337.668 2297.16 337.049 2297.16 337.049 2297.16C336.74 2297.16 336.43 2297.47 336.74 2297.78ZM331.787 2286.94C331.787 2287.25 332.097 2287.25 332.406 2287.25C332.716 2287.25 332.716 2286.94 332.716 2286.94V2286.64C332.716 2286.33 332.406 2286.33 332.097 2286.33C332.097 2286.33 331.787 2286.33 331.787 2286.64V2286.94ZM250.072 2275.18C250.072 2275.49 250.382 2275.8 250.692 2275.49C251.001 2275.49 251.311 2275.18 251.311 2274.87C251.311 2274.56 251.001 2274.25 250.692 2274.56C250.382 2274.56 250.072 2274.87 250.072 2275.18ZM269.573 2325.02H270.192C270.192 2324.71 270.192 2324.4 270.192 2324.4C269.882 2324.4 269.573 2324.4 269.573 2324.4C269.263 2324.4 269.573 2324.71 269.573 2325.02ZM277.001 2313.56C277.311 2313.56 277.62 2313.56 277.93 2313.25C277.93 2312.95 277.93 2312.64 277.93 2312.33C277.62 2312.33 277.311 2312.33 277.311 2312.33C276.692 2312.95 276.692 2313.25 277.001 2313.56V2313.56ZM284.12 2302.11H284.739C284.739 2301.8 284.739 2301.49 284.739 2301.18C284.43 2301.18 284.12 2301.18 283.811 2301.18C283.811 2301.8 283.811 2302.11 284.12 2302.11V2302.11ZM291.549 2290.97H292.478C292.787 2290.66 292.478 2290.35 292.478 2290.04C292.478 2289.73 292.168 2290.04 291.858 2290.04C290.93 2290.35 291.239 2290.66 291.549 2290.97V2290.97ZM325.287 2334.3C325.287 2334.61 325.597 2334.92 325.906 2334.92C326.216 2334.92 326.525 2334.61 326.216 2334.3C326.216 2333.99 325.906 2333.68 325.597 2333.68C325.287 2333.68 325.287 2334.3 325.287 2334.3ZM322.192 2321.3C322.192 2321.61 322.502 2321.92 322.811 2321.61C323.121 2321.61 323.43 2321.3 323.121 2320.99C323.121 2320.68 322.811 2320.37 322.502 2320.37C322.502 2320.68 322.192 2320.99 322.192 2321.3V2321.3ZM319.406 2307.99C319.406 2308.3 319.716 2308.61 320.025 2308.61C320.335 2308.61 320.644 2308.3 320.335 2307.99C320.335 2307.68 320.025 2307.37 319.716 2307.37C319.716 2307.68 319.406 2307.99 319.406 2307.99ZM316.621 2294.99C316.621 2295.3 316.93 2295.61 317.24 2295.61C317.549 2295.61 317.859 2295.3 317.549 2294.99C317.549 2294.68 317.24 2294.37 316.93 2294.37C316.621 2294.37 316.621 2294.68 316.621 2294.99ZM254.406 2300.25C254.406 2300.56 255.025 2300.56 255.334 2300.25C255.644 2299.95 255.644 2299.64 255.334 2299.33C255.334 2299.02 254.715 2299.02 254.406 2299.33C254.096 2299.64 254.096 2299.95 254.406 2300.25ZM265.549 2292.52C265.549 2292.83 266.168 2292.83 266.168 2292.52C266.477 2292.52 266.477 2291.9 266.168 2291.59C265.858 2291.28 265.549 2291.28 265.239 2291.59C265.239 2291.9 265.239 2292.21 265.549 2292.52V2292.52ZM276.382 2284.78C276.382 2285.09 277.001 2285.09 277.001 2284.78C277.311 2284.78 277.311 2284.16 277.311 2284.16C277.311 2283.85 276.692 2283.85 276.692 2284.16C276.382 2284.16 276.382 2284.47 276.382 2284.78ZM297.739 2328.42C298.359 2328.42 298.668 2328.42 298.668 2328.11C298.668 2327.8 298.668 2327.49 298.049 2327.49C297.739 2327.49 297.43 2327.49 297.43 2328.11C297.43 2328.73 297.43 2328.11 297.739 2328.42V2328.42ZM299.906 2314.49C299.906 2314.8 299.906 2315.11 300.525 2315.11C300.835 2315.11 301.144 2315.11 301.144 2314.49C301.144 2314.18 301.144 2313.87 300.525 2313.87C300.216 2313.87 299.906 2314.18 299.906 2314.49ZM302.073 2301.18C302.073 2301.49 302.073 2301.8 302.692 2301.8C303.311 2301.8 303.311 2301.8 303.311 2301.18C303.311 2300.56 303.311 2300.56 302.692 2300.56C302.382 2300.87 302.073 2301.18 302.073 2301.18ZM304.549 2288.18C304.549 2288.49 304.549 2288.8 305.168 2288.8C305.478 2288.8 305.787 2288.8 305.787 2288.49C305.787 2288.18 305.787 2287.87 305.168 2287.87C304.859 2287.56 304.549 2287.87 304.549 2288.18ZM347.883 2317.59C347.883 2317.9 348.502 2317.9 348.811 2317.59C349.121 2317.59 349.121 2316.97 348.811 2316.97C348.811 2316.66 348.192 2316.66 348.192 2316.66C347.883 2316.97 347.573 2317.28 347.883 2317.59V2317.59ZM340.144 2306.45C340.144 2306.75 340.764 2306.75 340.764 2306.45C341.073 2306.45 341.073 2305.83 341.073 2305.83C340.764 2305.52 340.454 2305.52 340.144 2305.83V2306.45ZM332.406 2295.61C332.406 2295.92 333.025 2295.92 333.335 2295.61C333.644 2295.61 333.644 2294.99 333.335 2294.99C333.335 2294.68 332.716 2294.68 332.716 2294.99C332.406 2294.99 332.406 2295.3 332.406 2295.61V2295.61ZM249.453 2293.14C249.763 2293.75 250.382 2293.75 250.692 2293.14C251.001 2292.83 251.311 2292.21 251.001 2291.9C250.692 2291.28 250.072 2291.28 249.763 2291.59C249.453 2292.21 249.453 2292.83 249.453 2293.14ZM268.335 2279.83C268.644 2280.44 269.263 2280.44 269.573 2280.14C270.192 2279.83 270.192 2279.21 269.882 2278.9C269.573 2278.28 268.954 2278.28 268.644 2278.59C268.025 2278.59 268.025 2279.21 268.335 2279.83ZM279.787 2360.92C279.787 2361.54 280.096 2361.85 280.716 2361.85C281.335 2361.85 281.644 2361.54 281.644 2360.92C281.644 2360.3 281.335 2359.99 280.716 2359.99C280.406 2360.3 280.096 2360.61 279.787 2360.92ZM283.501 2338.33C283.501 2338.95 283.811 2339.26 284.43 2339.26C285.049 2339.26 285.358 2338.95 285.358 2338.33C285.358 2337.71 285.049 2337.4 284.43 2337.4C284.12 2337.4 283.501 2337.71 283.501 2338.33ZM287.216 2315.42C287.216 2316.04 287.525 2316.35 288.144 2316.35C288.763 2316.35 289.073 2316.04 289.073 2315.42C289.073 2314.8 288.763 2314.49 288.144 2314.49C287.835 2314.8 287.216 2315.11 287.216 2315.42ZM290.62 2292.83C290.62 2293.45 290.93 2293.75 291.549 2293.75C292.168 2293.75 292.478 2293.45 292.478 2292.83C292.478 2292.21 292.168 2291.9 291.549 2291.9C291.239 2291.9 290.93 2292.21 290.62 2292.83ZM371.097 2361.85C371.407 2362.47 372.026 2362.47 372.645 2362.16C373.264 2361.85 373.264 2361.23 372.645 2360.92C372.026 2360.61 371.716 2360.3 371.407 2360.61C370.788 2360.92 370.788 2361.54 371.097 2361.85ZM357.478 2343.28C357.787 2343.9 358.407 2343.9 358.716 2343.59C359.335 2343.28 359.335 2342.66 359.026 2342.35C358.716 2342.04 358.097 2341.73 357.787 2342.04C357.168 2342.35 357.168 2342.66 357.478 2343.28ZM343.859 2324.4C344.168 2325.02 344.787 2325.02 345.097 2324.71C345.716 2324.4 345.716 2323.78 345.406 2323.16C345.097 2322.54 344.478 2322.54 344.168 2323.16C343.859 2323.47 343.549 2324.09 343.859 2324.4ZM330.24 2305.83C330.549 2306.45 331.168 2306.45 331.478 2306.14C332.097 2305.83 332.097 2305.21 331.787 2304.59C331.478 2303.97 330.859 2303.97 330.549 2304.28C329.93 2304.9 329.93 2305.52 330.24 2305.83ZM316.621 2287.25C316.93 2287.87 317.549 2287.87 317.859 2287.25C318.168 2286.94 318.478 2286.33 318.168 2286.02C317.859 2285.4 317.24 2285.4 316.93 2285.71C316.311 2286.33 316.311 2286.94 316.621 2287.25ZM259.049 2318.83C259.668 2319.14 259.977 2318.83 260.287 2318.52C260.596 2318.21 260.287 2317.59 259.977 2317.28C259.358 2316.97 259.049 2317.28 258.739 2317.59C258.43 2317.9 258.739 2318.52 259.049 2318.83ZM271.12 2299.02C271.739 2299.33 272.049 2299.02 272.358 2298.71C272.668 2298.09 272.358 2297.78 272.049 2297.47C271.43 2297.16 271.12 2297.47 270.811 2297.78C270.501 2298.4 270.811 2299.02 271.12 2299.02ZM283.192 2279.52C283.811 2279.83 284.12 2279.52 284.43 2279.21C284.739 2278.59 284.43 2278.28 284.12 2277.97C283.811 2277.66 283.192 2277.97 282.882 2278.28C282.573 2278.59 282.882 2279.21 283.192 2279.52ZM321.882 2372.07C321.882 2372.68 322.502 2372.99 323.121 2372.68C323.74 2372.38 324.049 2372.07 323.74 2371.45C323.43 2370.83 323.121 2370.52 322.811 2370.83C321.882 2371.14 321.573 2371.45 321.882 2372.07V2372.07ZM316.311 2349.78C316.311 2350.4 316.93 2350.71 317.549 2350.4C318.168 2350.4 318.478 2349.78 318.168 2349.16C318.168 2348.54 317.549 2348.23 316.93 2348.54C316.621 2348.54 316.311 2349.16 316.311 2349.78ZM311.049 2327.18C311.049 2327.8 311.668 2328.11 311.978 2327.8C312.597 2327.8 312.906 2327.18 312.597 2326.56C312.597 2325.95 311.978 2325.64 311.359 2325.95C311.049 2326.26 310.74 2326.87 311.049 2327.18ZM305.478 2304.9C305.478 2305.52 306.097 2305.83 306.716 2305.52C307.335 2305.21 307.644 2304.9 307.335 2304.28C307.335 2303.66 306.716 2303.35 306.097 2303.66C305.787 2303.66 305.478 2304.28 305.478 2304.9ZM251.62 2303.97C252.239 2304.28 252.549 2303.97 252.858 2303.66C253.168 2303.04 252.858 2302.73 252.549 2302.42C252.239 2302.11 251.62 2302.11 251.311 2302.73C251.001 2303.04 251.311 2303.66 251.62 2303.97ZM264.62 2284.78C265.239 2285.09 265.549 2284.78 265.858 2284.47C266.168 2283.85 265.858 2283.54 265.549 2283.23C265.239 2282.92 264.62 2282.92 264.311 2283.54C264.001 2283.85 264.001 2284.47 264.62 2284.78ZM307.954 2379.49C307.954 2380.11 308.573 2380.42 309.192 2380.11C309.811 2380.11 310.12 2379.49 309.811 2378.88C309.811 2378.26 309.192 2377.95 308.882 2378.26C307.954 2378.57 307.644 2378.88 307.954 2379.49V2379.49ZM303.311 2356.9C303.311 2357.52 303.93 2357.83 304.549 2357.52C305.168 2357.52 305.478 2356.9 305.168 2356.59C305.168 2355.97 304.549 2355.66 303.93 2355.66C303.62 2355.97 303.311 2356.59 303.311 2356.9V2356.9ZM298.978 2334.3C298.978 2334.92 299.597 2335.23 300.216 2334.92C300.835 2334.92 301.144 2334.3 300.835 2333.99C300.835 2333.37 300.216 2333.06 299.906 2333.37C299.287 2333.37 298.978 2333.99 298.978 2334.3V2334.3ZM294.335 2312.02C294.335 2312.64 294.954 2312.95 295.263 2312.64C295.882 2312.64 296.192 2312.02 295.882 2311.71C295.882 2311.09 295.263 2310.78 294.954 2311.09C294.644 2311.4 294.335 2311.4 294.335 2312.02ZM290.001 2289.42C290.001 2290.04 290.62 2290.35 290.93 2290.04H291.239C291.549 2289.73 291.858 2289.42 291.549 2289.11C291.549 2288.49 290.93 2288.18 290.62 2288.49C290.311 2288.18 290.001 2288.8 290.001 2289.42ZM350.668 2300.87C351.287 2301.18 351.597 2300.87 351.906 2300.56C352.216 2299.95 351.906 2299.64 351.597 2299.33C351.287 2299.02 350.668 2299.02 350.359 2299.64C350.049 2299.95 350.049 2300.56 350.668 2300.87ZM331.168 2287.56C331.168 2287.56 331.168 2287.87 331.478 2288.18C332.097 2288.49 332.406 2288.49 332.716 2287.87C333.025 2287.56 333.025 2286.94 332.716 2286.64C332.406 2286.64 332.097 2286.33 332.097 2286.64C331.787 2286.64 331.478 2286.64 331.478 2286.94C331.168 2286.94 330.859 2287.25 331.168 2287.56V2287.56ZM264.62 2344.21C264.62 2344.83 264.93 2345.14 265.239 2345.14C265.858 2345.14 266.168 2344.83 266.477 2344.52C266.477 2343.9 266.168 2343.59 265.858 2343.28C264.93 2343.28 264.62 2343.59 264.62 2344.21V2344.21ZM268.954 2321.61C268.954 2322.23 269.263 2322.54 269.573 2322.85C269.882 2323.16 270.501 2322.54 270.811 2322.23C270.811 2321.61 270.501 2321.3 270.192 2320.99C269.573 2320.68 268.954 2320.99 268.954 2321.61ZM273.596 2299.02C273.596 2299.64 273.906 2299.95 274.525 2299.95C275.144 2299.95 275.454 2299.64 275.454 2299.33C275.454 2298.71 275.144 2298.4 274.835 2298.09C274.216 2298.09 273.596 2298.71 273.596 2299.02V2299.02ZM346.645 2351.02C346.954 2351.64 347.573 2351.64 347.883 2351.33C348.502 2351.02 348.502 2350.4 348.192 2350.09C347.883 2349.47 347.264 2349.47 346.954 2349.78C346.335 2350.09 346.335 2350.71 346.645 2351.02V2351.02ZM333.644 2331.83C333.954 2332.45 334.573 2332.45 334.883 2332.14C335.502 2331.83 335.502 2331.21 335.192 2330.9C334.883 2330.28 334.264 2330.28 333.954 2330.59C333.644 2330.9 333.644 2331.52 333.644 2331.83ZM320.954 2312.95C321.263 2313.56 321.882 2313.56 322.192 2313.25C322.811 2312.95 322.811 2312.33 322.502 2312.02C322.192 2311.4 321.573 2311.4 321.263 2311.71C320.954 2311.71 320.644 2312.33 320.954 2312.95ZM308.263 2293.75C308.573 2294.37 309.192 2294.37 309.501 2294.06C310.121 2293.75 310.12 2293.14 309.811 2292.83C309.501 2292.21 308.882 2292.21 308.573 2292.52C308.263 2292.83 307.954 2293.14 308.263 2293.75ZM255.025 2292.83C255.334 2292.83 255.953 2292.83 255.953 2292.52C255.953 2292.21 255.953 2291.59 255.644 2291.59C255.334 2291.59 255.025 2291.59 254.715 2291.9C254.406 2292.21 254.715 2292.83 255.025 2292.83ZM261.525 2276.73C261.834 2276.73 262.144 2276.73 262.454 2276.42C262.454 2276.11 262.454 2275.49 262.144 2275.49C261.834 2275.49 261.525 2275.49 261.215 2275.8C260.906 2276.42 260.906 2276.73 261.525 2276.73ZM308.263 2339.87C308.263 2340.18 308.882 2340.49 309.192 2340.18C309.501 2339.87 309.811 2339.56 309.501 2339.26C309.501 2338.95 308.882 2338.64 308.573 2338.95C308.263 2339.26 308.263 2339.57 308.263 2339.87ZM301.454 2323.78C301.454 2324.09 302.073 2324.4 302.382 2324.09C302.692 2323.78 303.001 2323.47 302.692 2323.16C302.692 2322.85 302.073 2322.54 301.763 2322.85C301.454 2323.16 301.454 2323.47 301.454 2323.78ZM294.644 2307.99C294.644 2308.3 295.263 2308.61 295.573 2308.3C295.882 2307.99 296.192 2307.68 295.882 2307.37C295.882 2307.06 295.263 2306.75 294.954 2307.06C294.644 2307.37 294.335 2307.68 294.644 2307.99ZM287.835 2292.21C287.835 2292.52 288.454 2292.83 288.763 2292.52C289.073 2292.52 289.382 2291.9 289.073 2291.59C289.073 2291.28 288.454 2290.97 288.144 2291.28C287.835 2291.28 287.525 2291.59 287.835 2292.21ZM271.43 2338.02C271.43 2338.33 271.739 2338.64 272.049 2338.64C272.358 2338.64 272.668 2338.33 272.668 2338.02C272.668 2337.71 272.358 2337.4 272.049 2337.4C271.739 2337.4 271.43 2337.71 271.43 2338.02ZM271.43 2320.68C271.43 2320.99 271.739 2321.3 272.049 2321.3C272.358 2321.3 272.668 2320.99 272.668 2320.68C272.668 2320.37 272.358 2320.06 272.049 2320.06C271.739 2320.06 271.43 2320.37 271.43 2320.68ZM271.12 2303.66C271.12 2303.97 271.43 2304.28 271.739 2304.28C272.049 2304.28 272.358 2303.97 272.358 2303.66C272.358 2303.35 272.049 2303.04 271.739 2303.04C271.43 2302.73 271.12 2303.04 271.12 2303.66C271.12 2303.35 271.12 2303.35 271.12 2303.66ZM270.811 2286.33C270.811 2286.64 271.12 2286.94 271.43 2286.94C271.739 2286.94 272.049 2286.64 272.049 2286.33C272.049 2286.02 271.739 2285.71 271.43 2285.71C271.12 2285.4 270.811 2285.71 270.811 2286.33ZM333.025 2312.95C333.335 2313.25 333.644 2313.25 333.954 2312.95C334.264 2312.64 334.264 2312.33 333.954 2312.02C333.644 2311.71 333.335 2311.71 333.025 2312.02C332.716 2312.33 332.716 2312.64 333.025 2312.95ZM320.644 2300.87C320.954 2301.18 321.263 2301.18 321.573 2300.87C321.882 2300.56 321.882 2300.25 321.573 2299.95C321.263 2299.64 320.954 2299.64 320.644 2299.95C320.335 2300.25 320.335 2300.56 320.644 2300.87ZM308.263 2288.8C308.573 2289.11 308.882 2289.11 309.192 2288.8C309.501 2288.49 309.501 2288.18 309.192 2287.87C308.882 2287.56 308.573 2287.56 308.263 2287.87C307.954 2288.18 307.954 2288.49 308.263 2288.8ZM267.096 2299.95C267.096 2300.25 267.406 2300.25 267.715 2300.25C268.025 2300.25 268.025 2299.95 268.025 2299.64C268.025 2299.33 267.715 2299.33 267.406 2299.33C267.406 2299.64 267.096 2299.64 267.096 2299.95ZM265.549 2290.66C265.549 2290.97 265.858 2290.97 266.168 2290.97C266.477 2290.97 266.477 2290.66 266.477 2290.66C266.477 2290.35 266.168 2290.35 265.858 2290.35C265.549 2290.35 265.549 2290.35 265.549 2290.66ZM264.001 2281.37C264.001 2281.68 264.311 2281.68 264.62 2281.68C264.93 2281.68 264.93 2281.37 264.93 2281.06C264.93 2280.75 264.62 2280.75 264.311 2280.75C264.001 2280.75 264.001 2281.06 264.001 2281.37ZM249.453 2285.09C249.453 2285.4 249.453 2285.71 249.763 2285.71C250.072 2285.71 250.382 2285.71 250.382 2285.4C250.382 2285.09 250.382 2284.78 250.072 2284.78C250.072 2284.78 249.763 2284.78 249.453 2285.09ZM251.62 2275.8C251.62 2276.11 251.62 2276.42 251.93 2276.42C252.239 2276.42 252.549 2276.42 252.549 2276.11C252.549 2275.8 252.549 2275.49 252.239 2275.49C251.93 2275.49 251.62 2275.49 251.62 2275.8ZM283.501 2288.49C283.501 2288.8 283.811 2288.8 284.12 2288.49C284.43 2288.49 284.43 2288.18 284.12 2287.87C284.12 2287.56 283.811 2287.56 283.501 2287.87C283.501 2288.18 283.192 2288.49 283.501 2288.49ZM278.239 2280.75C278.239 2281.06 278.549 2281.06 278.858 2280.75C279.168 2280.75 279.168 2280.44 278.858 2280.14C278.858 2279.83 278.549 2279.83 278.239 2280.14V2280.75ZM278.239 2315.11C278.549 2315.42 278.858 2315.42 279.168 2315.42C279.477 2315.42 279.477 2314.8 279.477 2314.49C279.477 2314.18 278.858 2314.18 278.549 2314.18C278.239 2314.49 277.93 2314.8 278.239 2315.11ZM269.882 2301.8C269.882 2302.11 270.501 2302.11 270.811 2302.11C271.12 2302.11 271.12 2301.49 271.12 2301.18C270.811 2300.87 270.501 2300.87 270.192 2300.87C269.882 2301.18 269.573 2301.49 269.882 2301.8ZM261.525 2288.8C261.834 2289.11 262.144 2289.11 262.454 2289.11C262.763 2288.8 262.763 2288.49 262.763 2288.18C262.454 2287.87 262.144 2287.87 261.834 2287.87C261.525 2287.87 261.525 2288.49 261.525 2288.8ZM253.168 2275.49C253.477 2275.8 253.787 2275.8 254.096 2275.8C254.406 2275.49 254.406 2275.18 254.406 2274.87C254.096 2274.56 253.787 2274.56 253.477 2274.56C253.168 2274.87 253.168 2275.18 253.168 2275.49ZM295.882 2287.87C296.192 2288.18 296.501 2287.87 296.811 2287.87C297.12 2287.56 296.811 2287.25 296.811 2286.94C296.501 2286.64 296.192 2286.94 295.882 2286.94C295.573 2286.94 295.573 2287.56 295.882 2287.87Z" fill="white"/>
<path d="M549.693 1961.63C549.693 1961.63 487.479 1957.3 416.288 1986.39C345.097 2015.49 339.525 2041.49 298.668 2059.44C258.12 2077.7 153.191 2104.32 156.905 2220.71C156.905 2220.71 216.644 2297.16 441.05 2286.64L594.575 1993.82C594.265 1994.13 560.217 1995.68 549.693 1961.63V1961.63Z" fill="url(#paint0_linear_746_5)"/>
<path d="M904.41 2459.04C874.386 2464.62 875.934 2451 850.553 2449.14C836.005 2448.21 723.957 2439.23 676.29 2432.42L701.052 2333.37C719.004 2342.35 784.314 2378.57 798.552 2382.28C842.505 2393.73 855.505 2398.38 863.862 2391.57C869.124 2387.54 875.315 2385.07 881.815 2384.76L902.862 2382.28C920.815 2373.3 923.291 2367.73 930.41 2382.28C937.529 2397.14 934.434 2453.47 904.41 2459.04V2459.04Z" fill="url(#paint1_linear_746_5)"/>
<path d="M594.266 1994.13C594.266 1994.13 563.932 2092.25 568.884 2158.8C573.837 2225.35 581.575 2247.94 630.48 2278.28C668.552 2301.8 704.147 2320.99 704.147 2320.99L657.409 2508.26C657.409 2508.26 591.48 2498.66 561.765 2451.31C528.027 2398.07 499.86 2395.9 469.836 2386.3C439.812 2377.02 378.217 2338.95 393.074 2238.04C407.931 2137.13 446.312 2064.39 542.884 1961.32" fill="#23286B"/>
<path d="M623.67 1952.96C615.623 1962.87 598.908 1984.84 593.956 1994.13C593.956 1994.13 562.694 2009.92 542.575 1961.63C542.575 1961.32 567.337 1950.8 579.408 1940.89C584.98 1943.68 600.147 1934.7 606.027 1936.56C615.313 1939.34 614.694 1952.34 623.67 1952.96Z" fill="url(#paint2_linear_746_5)"/>
<path d="M539.479 1882.7L537.932 1876.51L685.575 1840.6L686.504 1844.32L687.742 1848.65L539.479 1882.7Z" fill="url(#paint3_linear_746_5)"/>
<path d="M697.338 1903.44C695.79 1904.06 694.242 1904.99 693.623 1906.53C687.433 1919.53 654.623 1978.34 579.408 1940.58C579.408 1940.58 579.099 1940.58 578.48 1939.96C581.575 1940.89 584.361 1939.03 585.289 1936.25C586.218 1932.84 585.908 1927.27 581.575 1916.44C571.051 1892.29 584.67 1878.37 592.718 1882.39C601.075 1886.41 607.885 1919.53 619.647 1903.44C627.694 1892.6 627.075 1876.82 631.099 1868.15C631.718 1866.6 633.266 1865.67 634.813 1865.06L687.433 1852.06C687.742 1852.98 688.052 1854.22 688.052 1855.46C688.052 1855.77 688.052 1856.08 688.361 1856.7C689.599 1860.1 697.338 1878.37 706.004 1884.56C715.6 1891.06 711.576 1899.72 697.338 1903.44V1903.44Z" fill="#FFBEB6"/>
<path d="M541.956 1888.27L632.647 1866.29C627.075 1874.03 628.623 1891.68 619.647 1903.75C607.885 1919.53 601.075 1886.41 592.718 1882.7C584.67 1878.68 571.051 1892.6 581.575 1916.75C592.099 1940.89 580.337 1940.58 580.337 1940.58C554.337 1935.94 544.122 1897.87 541.956 1888.27V1888.27Z" fill="#23286B"/>
<path d="M690.528 1925.72C686.504 1931.6 678.766 1933.15 672.885 1929.13C670.718 1927.58 669.171 1925.72 668.242 1923.25C667.623 1921.39 670.099 1919.84 670.718 1921.7C672.575 1926.65 678.147 1929.13 683.099 1927.58C684.956 1926.96 686.504 1925.72 687.742 1923.87C689.29 1922.63 691.766 1924.18 690.528 1925.72V1925.72Z" fill="#1C2868"/>
<path d="M768.219 1833.17L541.027 1888.58L539.17 1880.22L761.409 1826.05C764.505 1825.44 767.29 1826.98 767.909 1830.08L768.219 1833.17Z" fill="#F1B505"/>
<path d="M686.504 1844.32L538.86 1880.22L534.836 1863.51C527.717 1834.41 545.67 1805.32 574.765 1798.2L615.004 1788.29C645.337 1780.86 675.671 1799.44 683.099 1829.77L686.504 1844.32Z" fill="url(#paint4_linear_746_5)"/>
<path d="M56.9267 1381.11L465.249 1270.63C480.347 1266.55 496.449 1268.63 510.012 1276.41C523.575 1284.19 533.488 1297.04 537.571 1312.13L561.007 1398.75C561.007 1398.75 634.405 1662.37 631.851 1660.59C629.298 1658.8 520.583 1582.4 497.806 1569.97L180.26 1655.18L134.434 1667.58C119.336 1671.66 103.235 1669.58 89.6718 1661.8C76.1087 1654.02 66.1952 1641.17 62.1121 1626.08L15.3099 1453.1C11.3252 1438.04 13.4657 1422.02 21.2638 1408.53C29.0618 1395.04 41.8834 1385.18 56.9267 1381.11H56.9267Z" fill="white"/>
<path d="M214.989 1506.55C223.67 1504.2 228.804 1495.26 226.456 1486.59C224.108 1477.91 215.168 1472.78 206.487 1475.13C197.806 1477.48 192.672 1486.41 195.02 1495.09C197.368 1503.77 206.308 1508.9 214.989 1506.55Z" fill="#A1C3FC"/>
<path d="M306.325 1481.84C315.006 1479.49 320.14 1470.55 317.792 1461.87C315.444 1453.2 306.504 1448.07 297.823 1450.42C289.142 1452.76 284.008 1461.7 286.356 1470.38C288.704 1479.06 297.644 1484.19 306.325 1481.84Z" fill="#A1C3FC"/>
<path d="M397.628 1457.13C406.309 1454.78 411.443 1445.85 409.096 1437.17C406.748 1428.49 397.808 1423.36 389.127 1425.71C380.446 1428.06 375.312 1437 377.66 1445.68C380.007 1454.35 388.948 1459.48 397.628 1457.13Z" fill="#A1C3FC"/>
<path d="M3286.01 2893.99C3285.81 2894.18 3239.11 2938.05 3188.87 2959.65C3138.53 2981.29 3123.42 3010.52 3123.42 3010.52L3417.97 3010.51L3376.52 2893.99H3286.01Z" fill="url(#paint5_linear_746_5)"/>
<path d="M3476.69 2893.88C3471.59 2898.63 3427.26 2939.29 3379.91 2959.65C3329.56 2981.3 3314.46 3010.52 3314.46 3010.52L3609 3010.51L3567.67 2893.88H3476.69Z" fill="#428DFC"/>
<path d="M3309.14 2174.28C3285.9 2190.76 3251.87 2195.02 3251.87 2195.02L3191.19 2188.54L3183.17 2292.69C3180.72 2352.96 3171.25 2427.9 3182.46 2498.21C3194.41 2573.14 3265.5 2789.25 3286.01 2893.99H3376.52C3407.02 2828.75 3401 2772.88 3388.62 2675.81C3373.66 2558.57 3398.19 2592.76 3373.15 2483.02C3348.14 2373.27 3354.83 2394.93 3362.88 2230.77C3365.5 2177.67 3373 2171.2 3361.4 2139.54" fill="url(#paint6_linear_746_5)"/>
<path d="M3225.41 2327.04C3230.21 2390.99 3239.91 2460.34 3256.09 2519.15C3273.34 2581.71 3431.19 2821.53 3476.69 2893.88H3567.67C3566.83 2873.35 3566.18 2789.94 3546.48 2736.24C3523.79 2674.66 3504.68 2691.5 3500.31 2641.5C3495.88 2591.54 3480.31 2561.46 3452.51 2512.69C3424.81 2463.88 3386.94 2479 3413.82 2296.7C3424.92 2223.96 3414.27 2149.55 3383.22 2082.88C3379.47 2084.43 3375.42 2086.04 3371.12 2087.68L3370.77 2084.74C3370.77 2084.74 3363.3 2088.59 3351.66 2094.66C3348.01 2095.89 3344.22 2097.13 3340.26 2098.37C3340.09 2099.24 3339.9 2100.07 3339.71 2100.91C3292.71 2125.53 3209.43 2169.82 3214.4 2172C3221.28 2175.04 3225.41 2327.04 3225.41 2327.04Z" fill="#23286B"/>
<path d="M3144.52 2205.52C3144.52 2205.52 3092.72 2290.79 3042.86 2332.85C2992.99 2374.91 2979.12 2375.18 2940.68 2362C2902.25 2348.82 2891.44 2346.6 2891.44 2346.6C2891.44 2346.6 2877.58 2365.32 2907.24 2373.45C2936.9 2381.57 2940.24 2393 2914.78 2404.64C2889.33 2416.28 2846.45 2424.77 2845.21 2432.46C2843.97 2440.14 2847.97 2449.46 2864.53 2444.27C2881.09 2439.07 2912.51 2430.45 2909.11 2434C2905.7 2437.54 2856.41 2450.95 2857.92 2457.19C2859.43 2463.43 2912.22 2505.32 2947.43 2477.12C2982.63 2448.93 3000.61 2409.58 3024.7 2398.67C3048.78 2387.75 3181.13 2339.21 3215.15 2303.73L3144.52 2205.52Z" fill="url(#paint7_linear_746_5)"/>
<path opacity="0.86" d="M3381.23 2195.65C3380.94 2195.53 3380.61 2195.68 3380.49 2195.97C3380.36 2196.24 3380.48 2196.57 3380.76 2196.7C3380.76 2196.7 3380.77 2196.71 3380.77 2196.71C3381.07 2196.82 3381.4 2196.68 3381.51 2196.39C3381.63 2196.1 3381.5 2195.78 3381.23 2195.65ZM3368.57 2190.44C3368.28 2190.32 3367.95 2190.47 3367.83 2190.76C3367.71 2191.06 3367.86 2191.39 3368.16 2191.51C3368.45 2191.62 3368.78 2191.48 3368.9 2191.18C3369 2190.89 3368.86 2190.56 3368.57 2190.44ZM3355.95 2185.23C3355.66 2185.12 3355.32 2185.26 3355.2 2185.55C3355.09 2185.85 3355.23 2186.18 3355.52 2186.3C3355.53 2186.3 3355.53 2186.3 3355.53 2186.3C3355.81 2186.41 3356.12 2186.28 3356.22 2186C3356.23 2185.99 3356.23 2185.98 3356.23 2185.97C3356.37 2185.72 3356.27 2185.4 3356.02 2185.26C3356 2185.25 3355.97 2185.24 3355.95 2185.23ZM3340.98 2236.87C3340.86 2236.59 3340.53 2236.46 3340.24 2236.58C3339.96 2236.7 3339.83 2237.03 3339.95 2237.32C3340.07 2237.6 3340.4 2237.73 3340.68 2237.61C3340.97 2237.49 3341.1 2237.16 3340.98 2236.87ZM3335.72 2224.24C3335.63 2223.96 3335.32 2223.82 3335.05 2223.92C3335.03 2223.92 3335.01 2223.93 3334.99 2223.94C3334.7 2224.05 3334.55 2224.38 3334.65 2224.67C3334.79 2224.96 3335.13 2225.09 3335.43 2224.97C3335.71 2224.85 3335.85 2224.52 3335.72 2224.24ZM3330.47 2211.6C3330.34 2211.31 3330.01 2211.16 3329.7 2211.26C3329.42 2211.4 3329.29 2211.74 3329.4 2212.03C3329.52 2212.32 3329.85 2212.45 3330.13 2212.33C3330.43 2212.22 3330.57 2211.89 3330.47 2211.6ZM3325.18 2198.92C3325.06 2198.63 3324.73 2198.5 3324.45 2198.62C3324.16 2198.76 3324.03 2199.1 3324.15 2199.4C3324.27 2199.68 3324.6 2199.82 3324.88 2199.69C3325.17 2199.55 3325.3 2199.22 3325.18 2198.92ZM3360.32 2214.66C3360.1 2214.45 3359.76 2214.45 3359.54 2214.67C3359.33 2214.89 3359.34 2215.23 3359.55 2215.44C3359.77 2215.66 3360.12 2215.65 3360.33 2215.43C3360.54 2215.24 3360.56 2214.91 3360.36 2214.69C3360.35 2214.68 3360.33 2214.67 3360.32 2214.66ZM3350.64 2204.98C3350.42 2204.77 3350.08 2204.77 3349.86 2204.99C3349.78 2205.08 3349.72 2205.19 3349.7 2205.31C3349.67 2205.49 3349.74 2205.68 3349.87 2205.8C3349.89 2205.84 3349.93 2205.86 3349.97 2205.86L3350.01 2205.86C3350.21 2206 3350.47 2205.97 3350.64 2205.8C3350.86 2205.58 3350.87 2205.23 3350.65 2205C3350.65 2204.99 3350.64 2204.98 3350.64 2204.98ZM3340.95 2195.33C3340.73 2195.12 3340.39 2195.12 3340.18 2195.34C3339.97 2195.56 3339.97 2195.91 3340.19 2196.12C3340.39 2196.34 3340.73 2196.35 3340.96 2196.15C3341.18 2195.93 3341.19 2195.58 3340.97 2195.35C3340.96 2195.34 3340.96 2195.34 3340.95 2195.33ZM3331.27 2185.65C3331.05 2185.43 3330.7 2185.44 3330.49 2185.66C3330.27 2185.87 3330.26 2186.22 3330.47 2186.45C3330.48 2186.46 3330.49 2186.46 3330.49 2186.47C3330.69 2186.68 3331.02 2186.7 3331.23 2186.5C3331.25 2186.49 3331.26 2186.47 3331.27 2186.46C3331.5 2186.24 3331.5 2185.88 3331.28 2185.66C3331.28 2185.66 3331.27 2185.65 3331.27 2185.65ZM3311.88 2235.08C3311.56 2235.08 3311.3 2235.34 3311.3 2235.66C3311.3 2235.98 3311.55 2236.24 3311.87 2236.25C3312.19 2236.25 3312.45 2235.99 3312.46 2235.67C3312.46 2235.35 3312.2 2235.09 3311.88 2235.08ZM3415 2239.51C3414.57 2239.12 3413.9 2239.15 3413.51 2239.58C3413.5 2239.59 3413.49 2239.6 3413.48 2239.61C3413.1 2240.05 3413.14 2240.71 3413.58 2241.09C3413.58 2241.1 3413.58 2241.1 3413.58 2241.1C3414.02 2241.5 3414.68 2241.47 3415.08 2241.03C3415.09 2241.02 3415.09 2241.01 3415.1 2241C3415.48 2240.56 3415.44 2239.9 3415.01 2239.52C3415.01 2239.51 3415 2239.51 3415 2239.51ZM3395.43 2222.44C3395 2222.06 3394.34 2222.1 3393.96 2222.54C3393.95 2222.54 3393.95 2222.54 3393.95 2222.55C3393.56 2222.99 3393.6 2223.68 3394.05 2224.07C3394.5 2224.47 3395.18 2224.42 3395.57 2223.97C3395.94 2223.51 3395.88 2222.83 3395.43 2222.44ZM3375.9 2205.42C3375.45 2205.02 3374.77 2205.07 3374.38 2205.52C3373.98 2205.97 3374.03 2206.65 3374.48 2207.04C3374.92 2207.44 3375.6 2207.4 3376 2206.94C3376.39 2206.51 3376.36 2205.84 3375.93 2205.44C3375.92 2205.43 3375.91 2205.43 3375.9 2205.42ZM3356.37 2188.39C3355.93 2188 3355.26 2188.03 3354.87 2188.46C3354.86 2188.47 3354.85 2188.48 3354.84 2188.49C3354.6 2188.75 3354.51 2189.12 3354.59 2189.47L3354.63 2189.47C3354.67 2189.69 3354.78 2189.88 3354.94 2190.02C3355.04 2190.12 3355.17 2190.17 3355.3 2190.19C3355.85 2190.4 3356.46 2190.14 3356.67 2189.59C3356.84 2189.17 3356.71 2188.68 3356.37 2188.39ZM3336.24 2305.1C3335.65 2305.14 3335.2 2305.65 3335.23 2306.24C3335.27 2306.81 3335.75 2307.25 3336.32 2307.22C3336.34 2307.22 3336.36 2307.21 3336.38 2307.21C3336.97 2307.17 3337.41 2306.67 3337.38 2306.07C3337.34 2305.49 3336.83 2305.05 3336.24 2305.1C3336.24 2305.1 3336.25 2305.1 3336.24 2305.1ZM3334.41 2279.17C3333.82 2279.22 3333.39 2279.73 3333.44 2280.31C3333.47 2280.91 3333.97 2281.36 3334.56 2281.33C3335.16 2281.3 3335.61 2280.8 3335.58 2280.2C3335.58 2280.2 3335.58 2280.19 3335.58 2280.18C3335.52 2279.59 3335 2279.15 3334.41 2279.17ZM3332.61 2253.24C3332.02 2253.31 3331.58 2253.82 3331.6 2254.42C3331.63 2254.99 3332.11 2255.43 3332.68 2255.4C3332.7 2255.4 3332.72 2255.39 3332.74 2255.39C3333.32 2255.37 3333.77 2254.88 3333.75 2254.29C3333.75 2254.28 3333.75 2254.27 3333.74 2254.26C3333.71 2253.66 3333.2 2253.21 3332.61 2253.24ZM3330.77 2227.35C3330.19 2227.4 3329.75 2227.91 3329.8 2228.49C3329.8 2228.49 3329.8 2228.49 3329.8 2228.5C3329.84 2229.09 3330.35 2229.54 3330.94 2229.5C3331.54 2229.46 3331.98 2228.94 3331.94 2228.35C3331.9 2227.76 3331.39 2227.31 3330.8 2227.35C3330.79 2227.35 3330.78 2227.35 3330.77 2227.35ZM3328.97 2201.43C3328.38 2201.49 3327.95 2202.01 3328.01 2202.61C3328.07 2203.19 3328.57 2203.61 3329.14 2203.58C3329.71 2203.55 3330.14 2203.07 3330.11 2202.5C3330.11 2202.48 3330.11 2202.46 3330.11 2202.44C3330.07 2201.84 3329.56 2201.4 3328.97 2201.43ZM3401.69 2186.66C3401.15 2186.47 3400.57 2186.74 3400.37 2187.28C3400.37 2187.3 3400.36 2187.31 3400.36 2187.33C3400.15 2187.87 3400.43 2188.48 3400.98 2188.68C3401.52 2188.89 3402.13 2188.61 3402.33 2188.06C3402.34 2188.04 3402.34 2188.02 3402.35 2187.99C3402.54 2187.46 3402.27 2186.87 3401.73 2186.67C3401.72 2186.67 3401.7 2186.66 3401.69 2186.66ZM3377.15 2178.4C3376.6 2178.21 3375.99 2178.5 3375.8 2179.05C3375.79 2179.07 3375.79 2179.09 3375.78 2179.11C3375.59 2179.66 3375.89 2180.25 3376.44 2180.43C3376.44 2180.43 3376.44 2180.44 3376.45 2180.44C3377 2180.64 3377.61 2180.35 3377.81 2179.79C3377.81 2179.79 3377.81 2179.78 3377.82 2179.77C3378 2179.21 3377.71 2178.6 3377.15 2178.4ZM3387.1 2279.23C3386.84 2278.69 3386.2 2278.45 3385.65 2278.7C3385.11 2278.96 3384.87 2279.61 3385.12 2280.16C3385.38 2280.71 3386.02 2280.94 3386.57 2280.69C3386.58 2280.68 3386.58 2280.68 3386.59 2280.68C3387.12 2280.41 3387.34 2279.77 3387.1 2279.23ZM3375.53 2255.98C3375.28 2255.44 3374.63 2255.2 3374.09 2255.45C3373.54 2255.71 3373.31 2256.36 3373.56 2256.91C3373.81 2257.45 3374.46 2257.69 3375.01 2257.44C3375.01 2257.43 3375.02 2257.43 3375.03 2257.43C3375.56 2257.16 3375.78 2256.52 3375.53 2255.98ZM3363.97 2232.74C3363.68 2232.21 3363.03 2232 3362.49 2232.26C3361.96 2232.54 3361.75 2233.2 3362.04 2233.73C3362.31 2234.25 3362.93 2234.46 3363.46 2234.22C3363.99 2233.94 3364.22 2233.29 3363.97 2232.74ZM3352.37 2209.52C3352.13 2208.99 3351.49 2208.75 3350.96 2209C3350.43 2209.24 3350.19 2209.88 3350.44 2210.41C3350.45 2210.43 3350.46 2210.44 3350.46 2210.46C3350.72 2210.98 3351.35 2211.2 3351.88 2210.94C3351.89 2210.94 3351.9 2210.93 3351.91 2210.93C3352.42 2210.7 3352.64 2210.09 3352.4 2209.58C3352.39 2209.56 3352.38 2209.54 3352.37 2209.52ZM3340.81 2186.27C3340.54 2185.75 3339.89 2185.55 3339.37 2185.82C3338.87 2186.08 3338.66 2186.69 3338.9 2187.21C3339.16 2187.74 3339.8 2187.96 3340.34 2187.72C3340.86 2187.46 3341.08 2186.82 3340.82 2186.29C3340.81 2186.28 3340.81 2186.28 3340.81 2186.27ZM3287.66 2286.48C3287.13 2286.29 3286.54 2286.58 3286.35 2287.11C3286.34 2287.14 3286.33 2287.17 3286.32 2287.19C3286.14 2287.74 3286.43 2288.34 3286.98 2288.52C3286.98 2288.52 3286.99 2288.53 3286.99 2288.53C3287.55 2288.72 3288.16 2288.42 3288.36 2287.86C3288.52 2287.29 3288.21 2286.7 3287.66 2286.48ZM3295.89 2261.88C3295.34 2261.68 3294.73 2261.97 3294.53 2262.52C3294.52 2262.53 3294.52 2262.54 3294.52 2262.54C3294.33 2263.1 3294.62 2263.71 3295.18 2263.91C3295.75 2264.07 3296.35 2263.77 3296.55 2263.21C3296.74 2262.66 3296.45 2262.07 3295.9 2261.88C3295.9 2261.88 3295.89 2261.88 3295.89 2261.88ZM3409.3 2267.38C3409.02 2266.93 3408.44 2266.8 3407.99 2267.07C3407.54 2267.35 3407.4 2267.94 3407.68 2268.39C3407.68 2268.39 3407.68 2268.4 3407.69 2268.4C3407.97 2268.84 3408.56 2268.98 3409 2268.69C3409.44 2268.41 3409.58 2267.82 3409.3 2267.38ZM3397.05 2247.72C3396.77 2247.28 3396.18 2247.14 3395.74 2247.43C3395.29 2247.71 3395.16 2248.3 3395.44 2248.74C3395.72 2249.19 3396.31 2249.32 3396.75 2249.04C3397.19 2248.77 3397.34 2248.2 3397.07 2247.76C3397.07 2247.75 3397.06 2247.73 3397.05 2247.72ZM3384.81 2228.02C3384.73 2227.86 3384.6 2227.73 3384.43 2227.66L3384.39 2227.66C3384.1 2227.53 3383.76 2227.55 3383.49 2227.73C3383.04 2228.01 3382.9 2228.62 3383.19 2229.07C3383.19 2229.08 3383.19 2229.08 3383.19 2229.08C3383.48 2229.52 3384.06 2229.65 3384.51 2229.38C3384.71 2229.26 3384.86 2229.05 3384.89 2228.81C3385 2228.55 3384.97 2228.26 3384.81 2228.02ZM3372.56 2208.37C3372.27 2207.92 3371.69 2207.79 3371.24 2208.07C3370.79 2208.35 3370.65 2208.95 3370.94 2209.4C3371.22 2209.85 3371.8 2209.99 3372.26 2209.72C3372.71 2209.43 3372.85 2208.83 3372.56 2208.38C3372.56 2208.37 3372.56 2208.37 3372.56 2208.37ZM3360.34 2188.71C3360.04 2188.27 3359.45 2188.14 3358.99 2188.41C3358.54 2188.7 3358.42 2189.3 3358.71 2189.75C3358.99 2190.18 3359.55 2190.32 3360 2190.06C3360.45 2189.77 3360.6 2189.18 3360.34 2188.71ZM3312.77 2283.03C3312.25 2282.91 3311.74 2283.23 3311.63 2283.74C3311.63 2283.75 3311.62 2283.75 3311.62 2283.76C3311.49 2284.26 3311.78 2284.76 3312.28 2284.9C3312.29 2284.9 3312.3 2284.9 3312.32 2284.91C3312.84 2285.02 3313.36 2284.7 3313.5 2284.18C3313.59 2283.66 3313.27 2283.16 3312.77 2283.03ZM3317.97 2260.44C3317.46 2260.32 3316.95 2260.64 3316.83 2261.16C3316.83 2261.16 3316.83 2261.17 3316.83 2261.17C3316.7 2261.67 3316.99 2262.17 3317.48 2262.31C3317.49 2262.31 3317.51 2262.32 3317.52 2262.32C3318.03 2262.44 3318.53 2262.13 3318.66 2261.62C3318.78 2261.11 3318.48 2260.58 3317.97 2260.44ZM3323.18 2237.85C3322.66 2237.74 3322.15 2238.05 3322.03 2238.57C3322.03 2238.58 3322.03 2238.58 3322.03 2238.59C3321.89 2239.07 3322.16 2239.57 3322.63 2239.71C3322.66 2239.72 3322.69 2239.72 3322.72 2239.73C3323.24 2239.85 3323.75 2239.53 3323.86 2239.01C3323.86 2239.01 3323.87 2239 3323.87 2239C3323.98 2238.49 3323.67 2237.99 3323.18 2237.85ZM3328.34 2215.26C3327.83 2215.17 3327.33 2215.48 3327.2 2215.99C3327.08 2216.52 3327.41 2217.03 3327.93 2217.14C3328.43 2217.26 3328.94 2216.95 3329.07 2216.45C3329.17 2215.92 3328.86 2215.4 3328.34 2215.26ZM3333.58 2192.68C3333.06 2192.57 3332.54 2192.88 3332.4 2193.4C3332.28 2193.92 3332.6 2194.44 3333.12 2194.56C3333.63 2194.68 3334.15 2194.35 3334.27 2193.83C3334.27 2193.83 3334.27 2193.82 3334.27 2193.82C3334.37 2193.32 3334.07 2192.82 3333.58 2192.68ZM3399.64 2198.4C3399.2 2198.11 3398.61 2198.22 3398.29 2198.64C3397.99 2199.08 3398.1 2199.68 3398.53 2199.99C3398.98 2200.28 3399.58 2200.15 3399.87 2199.7C3400.15 2199.27 3400.04 2198.7 3399.64 2198.4ZM3380.81 2184.96C3380.39 2184.64 3379.78 2184.74 3379.47 2185.16L3379.46 2185.16C3379.18 2185.61 3379.28 2186.2 3379.7 2186.52C3380.14 2186.82 3380.75 2186.71 3381.05 2186.27C3381.35 2185.86 3381.26 2185.29 3380.85 2184.99C3380.84 2184.98 3380.82 2184.97 3380.81 2184.96ZM3361.93 2272.79C3361.41 2272.9 3361.07 2273.4 3361.15 2273.92C3361.24 2274.44 3361.73 2274.78 3362.24 2274.7C3362.76 2274.61 3363.12 2274.13 3363.05 2273.61C3362.96 2273.07 3362.46 2272.71 3361.93 2272.79ZM3358.12 2249.92C3357.61 2250.03 3357.27 2250.53 3357.35 2251.05C3357.44 2251.57 3357.93 2251.91 3358.44 2251.83C3358.94 2251.76 3359.29 2251.29 3359.22 2250.79C3359.22 2250.77 3359.21 2250.75 3359.21 2250.73C3359.13 2250.21 3358.64 2249.85 3358.12 2249.92ZM3354.31 2227.09C3353.81 2227.16 3353.46 2227.62 3353.53 2228.13C3353.54 2228.15 3353.54 2228.16 3353.54 2228.18C3353.63 2228.7 3354.11 2229.05 3354.62 2228.97C3355.14 2228.88 3355.49 2228.4 3355.41 2227.88C3355.41 2227.88 3355.4 2227.87 3355.4 2227.86C3355.33 2227.36 3354.87 2227.01 3354.37 2227.08C3354.35 2227.08 3354.33 2227.08 3354.31 2227.09ZM3350.51 2204.22C3349.99 2204.3 3349.63 2204.79 3349.7 2205.31C3349.74 2205.51 3349.83 2205.7 3349.97 2205.85L3350.01 2205.86C3350.23 2206.06 3350.53 2206.15 3350.83 2206.09C3351.34 2206 3351.68 2205.5 3351.59 2204.99C3351.5 2204.48 3351.02 2204.14 3350.51 2204.22ZM3407.53 2210.43C3407.32 2210.2 3406.96 2210.18 3406.72 2210.4C3406.49 2210.61 3406.48 2210.97 3406.69 2211.21C3406.9 2211.44 3407.26 2211.46 3407.5 2211.24C3407.72 2211.02 3407.73 2210.67 3407.53 2210.43ZM3398.24 2200.45C3398.02 2200.22 3397.66 2200.2 3397.43 2200.42C3397.2 2200.63 3397.18 2200.99 3397.4 2201.23C3397.61 2201.46 3397.97 2201.48 3398.2 2201.26C3398.42 2201.04 3398.44 2200.69 3398.24 2200.45ZM3388.91 2190.43C3388.71 2190.21 3388.36 2190.2 3388.14 2190.4C3387.91 2190.58 3387.86 2190.91 3388.04 2191.14C3388.06 2191.16 3388.08 2191.19 3388.11 2191.21C3388.31 2191.43 3388.65 2191.45 3388.88 2191.24C3389.11 2191.06 3389.15 2190.73 3388.97 2190.49C3388.95 2190.47 3388.93 2190.45 3388.91 2190.43ZM3379.61 2180.45C3379.39 2180.23 3379.04 2180.22 3378.81 2180.42C3378.58 2180.64 3378.58 2180.99 3378.79 2181.22C3378.8 2181.22 3378.8 2181.23 3378.81 2181.23C3379.01 2181.46 3379.36 2181.47 3379.58 2181.26C3379.8 2181.04 3379.82 2180.69 3379.61 2180.45ZM3353.39 2230.45C3353.08 2230.44 3352.82 2230.68 3352.81 2230.99C3352.8 2231.3 3353.04 2231.56 3353.35 2231.57C3353.65 2231.58 3353.91 2231.34 3353.92 2231.03C3353.93 2230.72 3353.69 2230.46 3353.39 2230.45ZM3353.84 2216.78C3353.54 2216.76 3353.29 2216.98 3353.26 2217.28C3353.26 2217.3 3353.26 2217.31 3353.26 2217.33C3353.25 2217.63 3353.49 2217.89 3353.8 2217.9C3354.11 2217.92 3354.39 2217.68 3354.41 2217.37C3354.42 2217.05 3354.17 2216.79 3353.85 2216.78C3353.85 2216.78 3353.84 2216.78 3353.84 2216.78ZM3354.33 2203.12C3354.04 2203.1 3353.78 2203.32 3353.76 2203.62C3353.76 2203.63 3353.76 2203.65 3353.76 2203.66C3353.75 2203.97 3353.99 2204.23 3354.29 2204.24C3354.6 2204.25 3354.86 2204.01 3354.87 2203.7C3354.88 2203.39 3354.64 2203.13 3354.33 2203.12ZM3354.79 2189.45C3354.73 2189.44 3354.68 2189.45 3354.63 2189.47L3354.59 2189.46C3354.37 2189.55 3354.22 2189.76 3354.21 2189.99C3354.2 2190.3 3354.44 2190.56 3354.75 2190.57C3354.99 2190.57 3355.21 2190.41 3355.3 2190.18L3355.32 2190.03C3355.35 2189.74 3355.12 2189.48 3354.83 2189.45C3354.82 2189.45 3354.8 2189.45 3354.79 2189.45ZM3405.85 2176.96C3405.59 2176.82 3405.28 2176.92 3405.14 2177.18C3405.13 2177.2 3405.12 2177.22 3405.11 2177.24C3404.98 2177.51 3405.09 2177.83 3405.36 2177.96C3405.37 2177.97 3405.38 2177.97 3405.4 2177.98C3405.68 2178.1 3406.01 2177.97 3406.13 2177.7C3406.26 2177.42 3406.14 2177.09 3405.87 2176.97C3405.86 2176.96 3405.85 2176.96 3405.85 2176.96ZM3380.72 2218.97C3380.63 2218.68 3380.33 2218.52 3380.04 2218.61C3380.03 2218.62 3380.01 2218.62 3379.99 2218.63C3379.7 2218.73 3379.55 2219.05 3379.65 2219.33C3379.65 2219.34 3379.65 2219.35 3379.66 2219.36C3379.78 2219.64 3380.1 2219.79 3380.39 2219.7C3380.68 2219.58 3380.83 2219.26 3380.72 2218.97ZM3375.92 2206.12C3375.81 2205.84 3375.5 2205.7 3375.22 2205.81C3375.21 2205.81 3375.2 2205.82 3375.19 2205.82C3374.9 2205.94 3374.76 2206.26 3374.85 2206.55C3374.98 2206.83 3375.29 2206.97 3375.58 2206.89C3375.88 2206.78 3376.04 2206.46 3375.93 2206.15C3375.93 2206.14 3375.93 2206.13 3375.92 2206.12ZM3371.15 2193.32C3371.02 2193.04 3370.71 2192.89 3370.42 2192.98C3370.13 2193.09 3369.98 2193.42 3370.09 2193.71C3370.18 2194 3370.48 2194.15 3370.77 2194.06C3370.78 2194.06 3370.8 2194.05 3370.82 2194.04C3371.1 2193.95 3371.26 2193.63 3371.16 2193.34C3371.16 2193.34 3371.15 2193.33 3371.15 2193.32ZM3366.38 2180.52C3366.26 2180.24 3365.95 2180.09 3365.66 2180.18C3365.37 2180.29 3365.22 2180.62 3365.32 2180.91C3365.41 2181.19 3365.72 2181.35 3366 2181.26C3366.02 2181.25 3366.03 2181.25 3366.05 2181.24C3366.34 2181.13 3366.49 2180.81 3366.38 2180.52ZM3328.26 2217.27C3328 2217.13 3327.69 2217.23 3327.55 2217.48C3327.54 2217.51 3327.53 2217.53 3327.52 2217.55C3327.4 2217.83 3327.53 2218.16 3327.81 2218.29C3328.09 2218.41 3328.42 2218.28 3328.54 2218C3328.67 2217.72 3328.54 2217.39 3328.26 2217.27ZM3333.92 2204.83C3333.66 2204.69 3333.35 2204.79 3333.21 2205.04C3333.2 2205.07 3333.19 2205.09 3333.18 2205.11C3333.05 2205.38 3333.16 2205.71 3333.43 2205.84C3333.43 2205.84 3333.43 2205.84 3333.43 2205.84C3333.72 2205.98 3334.06 2205.85 3334.2 2205.56C3334.33 2205.29 3334.21 2204.96 3333.94 2204.83C3333.93 2204.83 3333.92 2204.83 3333.92 2204.83ZM3339.58 2192.39C3339.3 2192.25 3338.96 2192.36 3338.81 2192.63C3338.67 2192.92 3338.8 2193.27 3339.09 2193.4C3339.38 2193.54 3339.73 2193.41 3339.86 2193.12C3339.97 2192.84 3339.85 2192.52 3339.58 2192.39ZM3417.43 2223.91C3417.25 2223.61 3416.87 2223.52 3416.58 2223.7C3416.58 2223.7 3416.57 2223.7 3416.57 2223.71C3416.26 2223.88 3416.16 2224.27 3416.34 2224.57C3416.34 2224.58 3416.35 2224.59 3416.36 2224.61C3416.54 2224.9 3416.92 2224.99 3417.21 2224.82C3417.22 2224.81 3417.22 2224.81 3417.23 2224.81C3417.52 2224.61 3417.61 2224.21 3417.43 2223.91ZM3409.03 2210.76C3408.86 2210.46 3408.48 2210.37 3408.19 2210.55C3408.18 2210.55 3408.18 2210.56 3408.17 2210.56C3407.87 2210.75 3407.78 2211.16 3407.97 2211.46C3408.16 2211.77 3408.57 2211.86 3408.87 2211.67C3409.16 2211.48 3409.25 2211.09 3409.06 2210.8C3409.05 2210.78 3409.04 2210.77 3409.03 2210.76ZM3400.68 2197.61C3400.49 2197.3 3400.08 2197.21 3399.78 2197.4C3399.47 2197.59 3399.38 2197.99 3399.57 2198.3C3399.57 2198.3 3399.57 2198.31 3399.57 2198.31C3399.57 2198.35 3399.61 2198.35 3399.64 2198.4C3399.86 2198.62 3400.2 2198.67 3400.48 2198.51C3400.78 2198.32 3400.87 2197.92 3400.68 2197.61ZM3392.29 2184.46L3392.16 2184.29C3392.12 2184.28 3392.09 2184.24 3392.01 2184.23C3391.81 2184.12 3391.57 2184.13 3391.38 2184.26C3391.08 2184.45 3390.99 2184.86 3391.18 2185.16C3391.38 2185.46 3391.78 2185.56 3392.08 2185.36C3392.39 2185.17 3392.48 2184.77 3392.29 2184.46ZM3352.55 2235.14C3352.2 2235.1 3351.87 2235.32 3351.78 2235.66C3351.7 2236 3351.91 2236.34 3352.25 2236.42C3352.57 2236.52 3352.9 2236.33 3353 2236.02C3353 2236 3353.01 2235.97 3353.01 2235.95C3353.11 2235.6 3352.9 2235.24 3352.55 2235.15C3352.55 2235.14 3352.55 2235.14 3352.55 2235.14ZM3355.89 2219.9C3355.54 2219.86 3355.21 2220.07 3355.12 2220.41C3355.04 2220.76 3355.25 2221.1 3355.59 2221.18C3355.94 2221.27 3356.3 2221.06 3356.39 2220.71V2220.71C3356.45 2220.35 3356.24 2220 3355.89 2219.9ZM3359.22 2204.65C3358.88 2204.61 3358.55 2204.83 3358.46 2205.17C3358.38 2205.51 3358.59 2205.85 3358.93 2205.93C3359.25 2206.02 3359.59 2205.84 3359.68 2205.51C3359.69 2205.48 3359.7 2205.45 3359.7 2205.42C3359.78 2205.08 3359.56 2204.74 3359.22 2204.65ZM3362.56 2189.41C3362.21 2189.35 3361.88 2189.57 3361.8 2189.93C3361.72 2190.27 3361.93 2190.61 3362.27 2190.69C3362.59 2190.78 3362.93 2190.6 3363.02 2190.27C3363.03 2190.24 3363.03 2190.21 3363.04 2190.17C3363.12 2189.83 3362.9 2189.49 3362.56 2189.41ZM3409.28 2177.28C3408.98 2177.09 3408.58 2177.17 3408.37 2177.46C3408.17 2177.74 3408.24 2178.13 3408.52 2178.32C3408.53 2178.33 3408.54 2178.34 3408.56 2178.34C3408.82 2178.55 3409.19 2178.5 3409.39 2178.24C3409.4 2178.23 3409.42 2178.21 3409.43 2178.19C3409.62 2177.89 3409.56 2177.5 3409.28 2177.28ZM3385.17 2228.19C3385.12 2227.85 3384.8 2227.61 3384.45 2227.66C3384.45 2227.66 3384.44 2227.66 3384.43 2227.66L3384.39 2227.66C3384.06 2227.74 3383.85 2228.06 3383.9 2228.4C3383.95 2228.75 3384.28 2228.99 3384.62 2228.94C3384.63 2228.94 3384.63 2228.93 3384.64 2228.93C3384.73 2228.91 3384.82 2228.86 3384.89 2228.81C3385.11 2228.69 3385.22 2228.44 3385.17 2228.19ZM3381.68 2212.27C3381.33 2212.36 3381.1 2212.69 3381.15 2213.05C3381.24 2213.4 3381.58 2213.61 3381.93 2213.55C3382.27 2213.48 3382.48 2213.15 3382.42 2212.81C3382.42 2212.81 3382.42 2212.8 3382.41 2212.8C3382.36 2212.45 3382.03 2212.22 3381.68 2212.27ZM3378.96 2196.92C3378.61 2196.98 3378.38 2197.32 3378.44 2197.66C3378.49 2198.01 3378.83 2198.25 3379.17 2198.19C3379.52 2198.14 3379.76 2197.8 3379.7 2197.45C3379.65 2197.11 3379.33 2196.87 3378.98 2196.92C3378.98 2196.92 3378.97 2196.92 3378.96 2196.92ZM3376.21 2181.57C3375.87 2181.64 3375.65 2181.97 3375.72 2182.31C3375.72 2182.31 3375.72 2182.32 3375.72 2182.32C3375.77 2182.64 3376.08 2182.87 3376.4 2182.82C3376.43 2182.82 3376.45 2182.81 3376.47 2182.81C3376.82 2182.75 3377.05 2182.42 3376.99 2182.06C3376.92 2181.71 3376.57 2181.49 3376.22 2181.57C3376.22 2181.57 3376.22 2181.57 3376.21 2181.57ZM3326.62 2215.41C3326.34 2215.22 3325.96 2215.28 3325.76 2215.56C3325.75 2215.58 3325.75 2215.59 3325.74 2215.6C3325.54 2215.88 3325.61 2216.27 3325.89 2216.47C3326.17 2216.69 3326.57 2216.63 3326.79 2216.34C3326.79 2216.34 3326.8 2216.33 3326.8 2216.33C3327 2216.02 3326.92 2215.62 3326.62 2215.41ZM3335.54 2202.61C3335.23 2202.41 3334.82 2202.49 3334.62 2202.79C3334.43 2203.07 3334.49 2203.45 3334.77 2203.65C3334.78 2203.66 3334.79 2203.66 3334.81 2203.67C3335.07 2203.88 3335.45 2203.83 3335.65 2203.57C3335.66 2203.55 3335.67 2203.54 3335.68 2203.52C3335.89 2203.23 3335.83 2202.82 3335.54 2202.61C3335.54 2202.61 3335.54 2202.61 3335.54 2202.61ZM3344.46 2189.81C3344.17 2189.6 3343.77 2189.67 3343.56 2189.96C3343.55 2189.97 3343.55 2189.98 3343.54 2189.99C3343.34 2190.29 3343.43 2190.69 3343.72 2190.88C3344.01 2191.08 3344.4 2191 3344.6 2190.72C3344.79 2190.42 3344.73 2190.03 3344.46 2189.81ZM3408.21 2292.4C3407.6 2292.5 3407.18 2293.06 3407.26 2293.67C3407.36 2294.27 3407.93 2294.67 3408.53 2294.58C3409.13 2294.48 3409.55 2293.92 3409.48 2293.32C3409.37 2292.71 3408.81 2292.3 3408.21 2292.4ZM3404.04 2265.95C3403.44 2266.05 3403.04 2266.62 3403.13 2267.22C3403.23 2267.83 3403.8 2268.24 3404.4 2268.14C3405 2268.04 3405.41 2267.47 3405.31 2266.87C3405.21 2266.26 3404.65 2265.86 3404.04 2265.95ZM3399.92 2239.51C3399.32 2239.59 3398.89 2240.14 3398.97 2240.74C3399.04 2241.34 3399.59 2241.77 3400.19 2241.7C3400.21 2241.69 3400.22 2241.69 3400.24 2241.69C3400.85 2241.6 3401.27 2241.03 3401.19 2240.42C3401.09 2239.82 3400.52 2239.41 3399.92 2239.51ZM3395.76 2213.06C3395.16 2213.15 3394.76 2213.71 3394.85 2214.31C3394.85 2214.32 3394.85 2214.33 3394.85 2214.33C3394.95 2214.94 3395.51 2215.34 3396.11 2215.25C3396.72 2215.15 3397.12 2214.58 3397.03 2213.98C3397.03 2213.98 3397.03 2213.98 3397.03 2213.98C3396.94 2213.38 3396.38 2212.97 3395.78 2213.06C3395.78 2213.06 3395.77 2213.06 3395.76 2213.06ZM3391.64 2186.62C3391.04 2186.72 3390.63 2187.28 3390.73 2187.88C3390.82 2188.47 3391.37 2188.88 3391.95 2188.79C3392.56 2188.7 3392.98 2188.14 3392.9 2187.53C3392.8 2186.93 3392.24 2186.53 3391.64 2186.62ZM3299.82 2266.14C3299.32 2265.79 3298.62 2265.91 3298.27 2266.41C3297.92 2266.9 3298.02 2267.57 3298.49 2267.94C3299 2268.29 3299.69 2268.18 3300.07 2267.69C3300.42 2267.19 3300.31 2266.51 3299.82 2266.14ZM3315.53 2244.51C3315.04 2244.15 3314.34 2244.27 3313.99 2244.76C3313.63 2245.26 3313.74 2245.95 3314.24 2246.31C3314.73 2246.67 3315.42 2246.55 3315.78 2246.06C3316.14 2245.56 3316.02 2244.87 3315.53 2244.51ZM3331.23 2222.88C3330.76 2222.51 3330.08 2222.59 3329.71 2223.07C3329.71 2223.08 3329.7 2223.09 3329.7 2223.09C3329.35 2223.6 3329.45 2224.3 3329.94 2224.68C3330.44 2225.03 3331.12 2224.92 3331.48 2224.43C3331.84 2223.95 3331.74 2223.26 3331.26 2222.9C3331.25 2222.89 3331.24 2222.88 3331.23 2222.88ZM3346.94 2201.24C3346.47 2200.87 3345.78 2200.96 3345.42 2201.43C3345.41 2201.44 3345.41 2201.45 3345.4 2201.46C3345.06 2201.97 3345.16 2202.66 3345.64 2203.04C3346.14 2203.39 3346.82 2203.28 3347.18 2202.79C3347.55 2202.33 3347.47 2201.67 3347.01 2201.3C3346.99 2201.28 3346.96 2201.26 3346.94 2201.24ZM3362.68 2179.57C3362.19 2179.23 3361.5 2179.34 3361.14 2179.83C3360.79 2180.33 3360.9 2181.03 3361.4 2181.39C3361.89 2181.74 3362.56 2181.64 3362.93 2181.16C3363.28 2180.65 3363.17 2179.96 3362.68 2179.57ZM3356.18 2278.28C3355.6 2278.13 3355.01 2278.5 3354.87 2279.08C3354.87 2279.09 3354.87 2279.09 3354.87 2279.1C3354.72 2279.69 3355.07 2280.28 3355.65 2280.45C3356.25 2280.56 3356.83 2280.21 3357 2279.63C3357.15 2279.03 3356.78 2278.42 3356.18 2278.28C3356.18 2278.28 3356.19 2278.28 3356.18 2278.28ZM3362.44 2252.26C3361.87 2252.11 3361.29 2252.45 3361.14 2253.02C3361.13 2253.04 3361.13 2253.07 3361.12 2253.09C3360.98 2253.67 3361.33 2254.26 3361.91 2254.4C3362.5 2254.55 3363.11 2254.19 3363.26 2253.58V2253.58C3363.41 2253.01 3363.07 2252.43 3362.5 2252.28C3362.48 2252.27 3362.46 2252.27 3362.44 2252.26ZM3368.7 2226.22C3368.1 2226.09 3367.5 2226.48 3367.38 2227.08C3367.25 2227.67 3367.62 2228.26 3368.21 2228.4C3368.79 2228.54 3369.37 2228.18 3369.51 2227.6C3369.51 2227.59 3369.52 2227.58 3369.52 2227.57C3369.67 2226.97 3369.3 2226.36 3368.7 2226.22C3368.7 2226.22 3368.7 2226.22 3368.7 2226.22ZM3374.95 2200.21C3374.36 2200.08 3373.78 2200.44 3373.64 2201.03C3373.5 2201.63 3373.87 2202.22 3374.46 2202.36C3375.04 2202.5 3375.62 2202.14 3375.77 2201.56C3375.92 2200.96 3375.55 2200.35 3374.95 2200.21C3374.96 2200.21 3374.96 2200.21 3374.95 2200.21ZM3372.31 2286.91C3371.71 2286.79 3371.12 2287.17 3371 2287.78C3370.87 2288.38 3371.26 2288.97 3371.86 2289.1C3372.46 2289.23 3373.05 2288.84 3373.17 2288.24C3373.3 2287.63 3372.91 2287.04 3372.31 2286.91ZM3377.47 2260.75C3376.86 2260.66 3376.28 2261.05 3376.14 2261.66C3376.05 2262.24 3376.43 2262.81 3377.01 2262.94C3377.61 2263.07 3378.2 2262.68 3378.33 2262.08C3378.44 2261.47 3378.06 2260.89 3377.47 2260.75ZM3382.58 2234.62C3381.99 2234.51 3381.42 2234.9 3381.3 2235.49C3381.19 2236.09 3381.57 2236.66 3382.17 2236.78C3382.77 2236.9 3383.36 2236.52 3383.48 2235.91C3383.57 2235.31 3383.18 2234.74 3382.58 2234.62ZM3387.73 2208.46C3387.15 2208.34 3386.58 2208.71 3386.46 2209.3C3386.46 2209.31 3386.46 2209.32 3386.46 2209.33C3386.35 2209.92 3386.73 2210.49 3387.32 2210.61C3387.89 2210.74 3388.46 2210.38 3388.59 2209.81C3388.6 2209.79 3388.6 2209.77 3388.61 2209.74C3388.73 2209.16 3388.35 2208.58 3387.76 2208.46C3387.75 2208.46 3387.74 2208.46 3387.73 2208.46ZM3392.89 2182.3C3392.31 2182.18 3391.74 2182.55 3391.62 2183.14C3391.61 2183.15 3391.61 2183.16 3391.61 2183.17C3391.52 2183.57 3391.68 2183.98 3392.01 2184.23C3392.09 2184.24 3392.12 2184.28 3392.16 2184.29C3392.25 2184.38 3392.36 2184.43 3392.48 2184.45C3393.08 2184.56 3393.65 2184.18 3393.76 2183.58C3393.87 2182.99 3393.49 2182.41 3392.89 2182.3ZM3416.74 2220.16C3416.15 2220.3 3415.76 2220.87 3415.86 2221.48C3415.98 2222.07 3416.55 2222.46 3417.15 2222.35C3417.74 2222.24 3418.13 2221.66 3418.02 2221.06C3418.01 2221.05 3418.01 2221.04 3418.01 2221.04C3417.9 2220.44 3417.34 2220.05 3416.75 2220.16C3416.75 2220.16 3416.75 2220.16 3416.74 2220.16ZM3411.49 2194.03C3410.89 2194.16 3410.5 2194.74 3410.62 2195.34C3410.76 2195.95 3411.35 2196.32 3411.95 2196.18C3412.53 2196.05 3412.9 2195.49 3412.8 2194.91C3412.68 2194.31 3412.09 2193.92 3411.49 2194.03ZM3328.03 2253.69C3327.54 2253.36 3326.87 2253.49 3326.54 2253.98C3326.53 2254 3326.52 2254.01 3326.51 2254.02C3326.18 2254.52 3326.31 2255.2 3326.8 2255.54C3327.31 2255.88 3328 2255.75 3328.35 2255.25C3328.69 2254.74 3328.56 2254.06 3328.06 2253.71C3328.05 2253.7 3328.04 2253.7 3328.03 2253.69ZM3342.76 2231.5C3342.27 2231.17 3341.61 2231.3 3341.28 2231.79C3341.27 2231.8 3341.26 2231.82 3341.25 2231.83C3340.92 2232.33 3341.05 2233.01 3341.54 2233.35C3342.05 2233.69 3342.74 2233.56 3343.09 2233.06C3343.43 2232.55 3343.3 2231.86 3342.79 2231.52C3342.78 2231.51 3342.77 2231.51 3342.76 2231.5ZM3357.5 2209.3C3356.99 2208.98 3356.32 2209.13 3355.99 2209.63C3355.65 2210.13 3355.78 2210.81 3356.28 2211.15C3356.79 2211.5 3357.48 2211.36 3357.83 2210.86C3358.17 2210.36 3358.04 2209.67 3357.53 2209.32C3357.52 2209.32 3357.51 2209.31 3357.5 2209.3ZM3372.24 2187.11C3371.72 2186.8 3371.06 2186.95 3370.72 2187.44C3370.39 2187.94 3370.52 2188.62 3371.02 2188.96C3371.53 2189.29 3372.21 2189.17 3372.57 2188.67C3372.91 2188.15 3372.76 2187.46 3372.25 2187.12C3372.25 2187.11 3372.24 2187.11 3372.24 2187.11ZM3372.17 2241.13C3371.78 2240.93 3371.3 2241.08 3371.1 2241.48C3371.09 2241.51 3371.08 2241.53 3371.07 2241.56C3370.89 2241.98 3371.08 2242.47 3371.5 2242.65C3371.92 2242.84 3372.41 2242.64 3372.6 2242.22C3372.78 2241.8 3372.59 2241.31 3372.17 2241.13ZM3380.06 2222.63C3379.65 2222.44 3379.16 2222.62 3378.97 2223.03C3378.96 2223.04 3378.96 2223.05 3378.95 2223.06C3378.77 2223.49 3378.96 2223.98 3379.38 2224.17C3379.8 2224.36 3380.3 2224.17 3380.49 2223.74C3380.67 2223.32 3380.48 2222.82 3380.06 2222.63ZM3387.94 2204.14C3387.52 2203.96 3387.03 2204.15 3386.84 2204.57C3386.65 2205 3386.84 2205.49 3387.27 2205.68C3387.69 2205.87 3388.19 2205.68 3388.37 2205.25C3388.55 2204.83 3388.36 2204.34 3387.94 2204.14ZM3395.83 2185.65C3395.4 2185.48 3394.91 2185.69 3394.72 2186.12C3394.56 2186.54 3394.76 2187.02 3395.19 2187.19C3395.19 2187.19 3395.19 2187.19 3395.19 2187.19C3395.6 2187.37 3396.07 2187.19 3396.25 2186.78C3396.25 2186.77 3396.26 2186.77 3396.26 2186.76C3396.45 2186.34 3396.27 2185.85 3395.86 2185.66C3395.85 2185.66 3395.84 2185.66 3395.83 2185.65ZM3414.29 2239.33C3413.83 2239.32 3413.46 2239.68 3413.44 2240.14C3413.44 2240.14 3413.44 2240.15 3413.44 2240.15C3413.45 2240.6 3413.81 2240.97 3414.25 2241C3414.71 2241 3415.08 2240.64 3415.1 2240.18C3415.13 2239.74 3414.79 2239.36 3414.35 2239.34C3414.33 2239.33 3414.31 2239.33 3414.29 2239.33ZM3414.51 2219.23C3414.07 2219.23 3413.71 2219.58 3413.7 2220.02C3413.7 2220.03 3413.7 2220.04 3413.7 2220.05C3413.69 2220.51 3414.05 2220.89 3414.51 2220.9C3414.51 2220.9 3414.51 2220.9 3414.51 2220.9C3414.97 2220.88 3415.35 2220.51 3415.36 2220.05C3415.36 2219.59 3414.98 2219.23 3414.52 2219.23C3414.52 2219.23 3414.52 2219.24 3414.51 2219.23ZM3414.78 2199.1C3414.31 2199.12 3413.94 2199.49 3413.93 2199.95C3413.92 2200.39 3414.26 2200.76 3414.7 2200.77C3414.71 2200.77 3414.73 2200.77 3414.74 2200.77C3415.18 2200.79 3415.56 2200.45 3415.59 2200.01C3415.59 2199.99 3415.59 2199.97 3415.59 2199.95C3415.6 2199.49 3415.24 2199.12 3414.78 2199.1C3414.78 2199.1 3414.78 2199.1 3414.78 2199.1ZM3415 2179C3414.55 2179 3414.19 2179.37 3414.19 2179.82V2179.82C3414.16 2180.26 3414.5 2180.65 3414.94 2180.67C3414.96 2180.67 3414.98 2180.67 3415 2180.67C3415.46 2180.68 3415.83 2180.32 3415.85 2179.86C3415.85 2179.86 3415.85 2179.86 3415.85 2179.86C3415.83 2179.39 3415.46 2179.02 3415 2179ZM3344.12 2209.89C3343.83 2209.56 3343.32 2209.53 3342.99 2209.82C3342.98 2209.83 3342.97 2209.84 3342.96 2209.84C3342.63 2210.15 3342.61 2210.66 3342.91 2211C3342.92 2211.01 3342.94 2211.03 3342.95 2211.04C3343.27 2211.37 3343.79 2211.37 3344.11 2211.05C3344.43 2210.73 3344.44 2210.21 3344.12 2209.89C3344.12 2209.89 3344.12 2209.89 3344.12 2209.89ZM3358.47 2195.82C3358.13 2195.51 3357.62 2195.5 3357.27 2195.81C3356.95 2196.15 3356.97 2196.69 3357.31 2197.01C3357.63 2197.32 3358.13 2197.33 3358.46 2197.02C3358.77 2196.69 3358.78 2196.17 3358.47 2195.82ZM3372.82 2181.8C3372.51 2181.46 3371.99 2181.44 3371.66 2181.75C3371.64 2181.76 3371.63 2181.77 3371.62 2181.79C3371.31 2182.11 3371.3 2182.62 3371.61 2182.95C3371.94 2183.28 3372.47 2183.27 3372.79 2182.94C3373.1 2182.63 3373.11 2182.12 3372.82 2181.8ZM3401.24 2182.06C3401.04 2181.93 3400.77 2181.99 3400.64 2182.2C3400.64 2182.2 3400.64 2182.2 3400.64 2182.21C3400.5 2182.42 3400.56 2182.71 3400.78 2182.85C3400.78 2182.85 3400.78 2182.85 3400.78 2182.85C3400.99 2182.97 3401.26 2182.9 3401.38 2182.7C3401.52 2182.48 3401.45 2182.2 3401.24 2182.06C3401.24 2182.06 3401.24 2182.06 3401.24 2182.06ZM3407.08 2212.54C3406.76 2212.33 3406.33 2212.41 3406.11 2212.74C3406.1 2212.75 3406.09 2212.77 3406.08 2212.79C3405.86 2213.09 3405.93 2213.52 3406.23 2213.74C3406.25 2213.76 3406.27 2213.77 3406.29 2213.78C3406.63 2214.02 3407.1 2213.92 3407.33 2213.58C3407.55 2213.25 3407.46 2212.79 3407.13 2212.57C3407.11 2212.56 3407.1 2212.55 3407.08 2212.54ZM3386.98 2180.55C3386.73 2180.22 3386.26 2180.16 3385.94 2180.42C3385.63 2180.66 3385.56 2181.1 3385.78 2181.43C3386.01 2181.77 3386.47 2181.86 3386.81 2181.63C3386.82 2181.63 3386.83 2181.62 3386.84 2181.61C3387.16 2181.35 3387.23 2180.88 3386.98 2180.55Z" fill="white"/>
<path d="M3083.4 1846.42C3083.4 1846.42 3130.04 1842.12 3203.56 1872.88C3277.09 1903.63 3299.92 1930.69 3341.62 1949.95C3383.33 1969.21 3491.26 1997.62 3486.57 2118.38C3486.57 2118.38 3464.16 2195.11 3232.77 2182.47L3042.38 1885.91C3042.38 1885.91 3072.24 1881.5 3083.4 1846.42Z" fill="url(#paint8_linear_746_5)"/>
<path d="M3046.54 1901.24C3046.54 1901.24 3102.18 2002.45 3115.58 2069.32C3128.98 2136.19 3127.33 2160.6 3087.59 2203.66C3056.57 2237.26 3026.92 2265.99 3026.92 2265.99L3123.69 2437.75C3123.69 2437.75 3185.72 2410.37 3202.23 2355.6C3220.78 2294 3247.79 2284.08 3274.73 2266.67C3301.67 2249.26 3351.63 2194.97 3309.56 2099.79C3267.49 2004.6 3205.09 1917.3 3082.11 1842.1" fill="#A1C3FC"/>
<path d="M3006.2 1851.12C3006.2 1851.12 3038.86 1885.81 3046.54 1901.23C3046.54 1901.23 3059.03 1903.16 3075.36 1868.47L3036.93 1820.29L3006.2 1851.12Z" fill="url(#paint9_linear_746_5)"/>
<path d="M2934.15 1737.41C2934.15 1737.41 2929.29 1773.65 2917.82 1786.55C2901.56 1804.85 2904.65 1806.79 2924.54 1815.46C2924.54 1815.46 2968.27 1890.64 3040.8 1832.14C3040.8 1832.14 3072.48 1803.9 3070.56 1787.52C3068.64 1771.14 3061.91 1746.08 3044.62 1742.22C3027.33 1738.37 2937.03 1710.43 2934.15 1737.41Z" fill="#FFBEB6"/>
<path d="M3063.2 1704.54C3082.34 1704.54 3097.86 1688.97 3097.86 1669.77C3097.86 1650.57 3082.34 1635 3063.2 1635C3044.06 1635 3028.54 1650.57 3028.54 1669.77C3028.54 1688.97 3044.06 1704.54 3063.2 1704.54Z" fill="#E94A47"/>
<path d="M3223.77 1790.76C3216.34 1775.59 3201.92 1765.08 3185.23 1762.69C3163.36 1759.88 3123.51 1777.76 3109.78 1754.7C3108.84 1752.67 3107.88 1750.43 3106.91 1748.03C3106.64 1747.13 3106.38 1746.2 3106.17 1745.22C3106.09 1744.77 3105.8 1744.39 3105.39 1744.2C3105.31 1743.97 3105.22 1743.77 3105.13 1743.54C3099.03 1727.51 3088.05 1713.8 3073.77 1704.35C3092.78 1703.66 3107.62 1687.64 3106.93 1668.57C3106.9 1667.71 3106.83 1666.85 3106.74 1666C3106.54 1663.96 3103.33 1663.94 3103.53 1666C3105.61 1683.18 3093.41 1698.8 3076.28 1700.89C3073.52 1701.22 3070.74 1701.19 3067.99 1700.79C3049.85 1690.49 3025.1 1684.39 2992.09 1685.61C2925.03 1688.05 2916.88 1739.25 2925.61 1772.39C2926.48 1770.17 2927.34 1768.18 2928.05 1765.87L2928.14 1765.61L2930.16 1758.23L2930.39 1757.36L2935.14 1740.23C2935.14 1740.23 2965.67 1746.02 2982.17 1765.9C2998.67 1785.77 3022.62 1777.49 3030.87 1771.69C3039.12 1765.9 3055.63 1775.85 3048.18 1793.2C3047.75 1794.2 3047.28 1795.27 3046.79 1796.38C3029.36 1825.6 3038.84 1863.47 3067.97 1880.95C3072.85 1883.88 3078.12 1886.12 3083.62 1887.6C3084.48 1887.81 3085.35 1887.27 3085.55 1886.41C3085.75 1885.58 3085.27 1884.75 3084.47 1884.49C3061.74 1878.34 3044.93 1859.08 3041.85 1835.67C3046.84 1850.11 3061.45 1866.12 3096.04 1881.81L3214.06 1798.2C3203.9 1779.51 3182.91 1769.48 3162.05 1773.37C3134.77 1777.6 3123.53 1776.9 3114.57 1763.44C3121.96 1768.09 3130.59 1770.38 3139.32 1770C3152.57 1769.84 3165.46 1765.15 3178.74 1765.5C3196.74 1765.79 3213.06 1776.18 3220.99 1792.39C3221.96 1794.23 3224.73 1792.6 3223.77 1790.76Z" fill="#E94A47"/>
<path d="M2943.87 1771.22C2938.81 1778.85 2928.54 1780.92 2920.94 1775.85C2918.18 1774.01 2916.04 1771.39 2914.79 1768.32C2913.82 1765.99 2917.27 1764.03 2918.25 1766.39C2920.64 1772.94 2927.87 1776.31 2934.4 1773.92C2936.86 1773.01 2938.99 1771.36 2940.47 1769.19C2941.93 1767.12 2945.34 1769.13 2943.87 1771.22Z" fill="#1C2868"/>
<g clip-path="url(#clip0_746_5)">
<path d="M3286.36 1421.96L3499.28 1570.48C3510.14 1578.04 3525.08 1575.38 3532.66 1564.52C3534.45 1561.96 3535.71 1559.09 3536.39 1556.04L3586.39 1332.77C3588.52 1323.28 3584.7 1313.46 3576.72 1307.89L3292.43 1109.6C3281.57 1102.03 3266.63 1104.7 3259.05 1115.56C3257.26 1118.11 3256 1120.99 3255.32 1124.04L3201.8 1363L3202.41 1363.42L3167.78 1519.81L3255.02 1425.36C3263.16 1416.56 3276.54 1415.1 3286.36 1421.96V1421.96Z" fill="url(#paint10_linear_746_5)"/>
</g>
<defs>
<filter id="filter0_d_746_5" x="676" y="0" width="2428" height="2489" filterUnits="userSpaceOnUse" color-interpolation-filters="sRGB">
<feFlood flood-opacity="0" result="BackgroundImageFix"/>
<feColorMatrix in="SourceAlpha" type="matrix" values="0 0 0 0 0 0 0 0 0 0 0 0 0 0 0 0 0 0 127 0" result="hardAlpha"/>
<feMorphology radius="10" operator="dilate" in="SourceAlpha" result="effect1_dropShadow_746_5"/>
<feOffset dy="25"/>
<feGaussianBlur stdDeviation="18.5"/>
<feComposite in2="hardAlpha" operator="out"/>
<feColorMatrix type="matrix" values="0 0 0 0 0.30467 0 0 0 0 0.407196 0 0 0 0 0.670833 0 0 0 0.25 0"/>
<feBlend mode="normal" in2="BackgroundImageFix" result="effect1_dropShadow_746_5"/>
<feBlend mode="normal" in="SourceGraphic" in2="effect1_dropShadow_746_5" result="shape"/>
</filter>
<linearGradient id="paint0_linear_746_5" x1="374.78" y1="2045.29" x2="378.781" y2="2412.07" gradientUnits="userSpaceOnUse">
<stop stop-color="#23286B"/>
<stop offset="1" stop-color="#151A4F"/>
</linearGradient>
<linearGradient id="paint1_linear_746_5" x1="839.428" y1="2425.63" x2="683.57" y2="2337.65" gradientUnits="userSpaceOnUse">
<stop stop-color="#FFBEB6"/>
<stop offset="1" stop-color="#F2A19C"/>
</linearGradient>
<linearGradient id="paint2_linear_746_5" x1="542.068" y1="2006.52" x2="604.379" y2="1939.23" gradientUnits="userSpaceOnUse">
<stop stop-color="#FFBEB6"/>
<stop offset="1" stop-color="#F2A19C"/>
</linearGradient>
<linearGradient id="paint3_linear_746_5" x1="661.503" y1="1897.78" x2="522.031" y2="1794.99" gradientUnits="userSpaceOnUse">
<stop stop-color="#F1B505"/>
<stop offset="1" stop-color="#D69B09"/>
</linearGradient>
<linearGradient id="paint4_linear_746_5" x1="671.843" y1="1788.06" x2="470.753" y2="1936.26" gradientUnits="userSpaceOnUse">
<stop stop-color="#F1B505"/>
<stop offset="1" stop-color="#D69B09"/>
</linearGradient>
<linearGradient id="paint5_linear_746_5" x1="3123.42" y1="2952.25" x2="3417.97" y2="2952.25" gradientUnits="userSpaceOnUse">
<stop offset="0.1291" stop-color="#428DFC"/>
<stop offset="0.9987" stop-color="#1D72D8"/>
</linearGradient>
<linearGradient id="paint6_linear_746_5" x1="3076" y1="2796.81" x2="3362.73" y2="2446.53" gradientUnits="userSpaceOnUse">
<stop stop-color="#23286B"/>
<stop offset="0.4316" stop-color="#1D225F"/>
<stop offset="1" stop-color="#151A4F"/>
</linearGradient>
<linearGradient id="paint7_linear_746_5" x1="2937.51" y1="2400.89" x2="3222.86" y2="2225.65" gradientUnits="userSpaceOnUse">
<stop stop-color="#FFBEB6"/>
<stop offset="0.0326" stop-color="#FEBDB5"/>
<stop offset="0.6116" stop-color="#F5A8A3"/>
<stop offset="1" stop-color="#F2A19C"/>
</linearGradient>
<linearGradient id="paint8_linear_746_5" x1="3257.21" y1="1913.26" x2="3292.96" y2="2305.35" gradientUnits="userSpaceOnUse">
<stop stop-color="#A1C3FC"/>
<stop offset="0.6955" stop-color="#81AEF2"/>
<stop offset="1" stop-color="#78A9EF"/>
</linearGradient>
<linearGradient id="paint9_linear_746_5" x1="3075.64" y1="1908.55" x2="3013.09" y2="1821.64" gradientUnits="userSpaceOnUse">
<stop stop-color="#FFBEB6"/>
<stop offset="0.0326" stop-color="#FEBDB5"/>
<stop offset="0.6116" stop-color="#F5A8A3"/>
<stop offset="1" stop-color="#F2A19C"/>
</linearGradient>
<linearGradient id="paint10_linear_746_5" x1="3434.67" y1="779.072" x2="3219.99" y2="3196.52" gradientUnits="userSpaceOnUse">
<stop offset="0.0898" stop-color="#5284D0"/>
<stop offset="0.520833" stop-color="#FBFCFD"/>
</linearGradient>
<clipPath id="clip0_746_5">
<rect width="521.103" height="449.886" fill="white" transform="translate(3349.49 1038) rotate(49.7749)"/>
</clipPath>
</defs>
</svg>
