<svg width="1434" height="654" viewBox="0 0 1434 654" fill="none" xmlns="http://www.w3.org/2000/svg">
<path d="M1250.76 445.803H1125.99V652.416H1250.76V445.803Z" fill="white" stroke="black" stroke-miterlimit="10" stroke-linecap="round" stroke-linejoin="round"/>
<path d="M1359.14 481.804H1265.29V653.135H1359.14V481.804Z" fill="#428DFC"/>
<circle cx="1294.5" cy="644.5" r="6.5" fill="black"/>
<circle cx="1332.5" cy="645.5" r="6.5" fill="black"/>
<circle cx="1277.5" cy="495.5" r="6.5" fill="black"/>
<circle cx="1295.5" cy="525.5" r="6.5" fill="black"/>
<circle cx="1316.5" cy="495.5" r="6.5" fill="black"/>
<circle cx="1333.5" cy="526.5" r="6.5" fill="black"/>
<circle cx="1347.5" cy="495.5" r="6.5" fill="black"/>
<circle cx="1277.5" cy="560.5" r="6.5" fill="black"/>
<circle cx="1295.5" cy="590.5" r="6.5" fill="black"/>
<circle cx="1316.5" cy="560.5" r="6.5" fill="black"/>
<circle cx="1333.5" cy="591.5" r="6.5" fill="black"/>
<circle cx="1347.5" cy="560.5" r="6.5" fill="black"/>
<circle cx="1276.5" cy="614.5" r="6.5" fill="black"/>
<circle cx="1315.5" cy="614.5" r="6.5" fill="black"/>
<circle cx="1346.5" cy="614.5" r="6.5" fill="black"/>
<path d="M0 653L1433 650.951" stroke="black" stroke-miterlimit="10"/>
<path d="M1040.04 408.719C1040.04 410.657 1038.47 412.218 1036.54 412.218C1034.6 412.218 1033.04 410.657 1033.04 408.719C1033.04 406.781 1034.6 405.219 1036.54 405.219C1038.46 405.219 1040.04 406.792 1040.04 408.719Z" stroke="black" stroke-miterlimit="10" stroke-linecap="round" stroke-linejoin="round"/>
<path d="M1420.61 213.083C1422.55 213.083 1424.11 211.516 1424.11 209.583C1424.11 207.65 1422.55 206.083 1420.61 206.083C1418.68 206.083 1417.11 207.65 1417.11 209.583C1417.11 211.516 1418.68 213.083 1420.61 213.083Z" stroke="black" stroke-miterlimit="10" stroke-linecap="round" stroke-linejoin="round"/>
<path d="M1122.06 291.515L1104.08 270.117H1122.06V291.515Z" stroke="#9A8CF3" stroke-miterlimit="10" stroke-linecap="round" stroke-linejoin="round"/>
<path d="M1041.92 270.106V213.904H1122.06V257.292V270.106V270.117H1104.08L1104.07 270.106H1041.92Z" stroke="black" stroke-miterlimit="10" stroke-linecap="round" stroke-linejoin="round"/>
<path d="M1102.6 233.786H1056.63" stroke="black" stroke-miterlimit="10" stroke-linecap="round" stroke-linejoin="round"/>
<path d="M1102.6 250.635H1067.98" stroke="black" stroke-miterlimit="10" stroke-linecap="round" stroke-linejoin="round"/>
<path d="M1173.1 372.581L1097.1 389.122C1095.41 389.487 1093.67 388.677 1092.85 387.138L1058.23 310.006C1056.33 306.426 1051.88 305.07 1048.3 306.962L1046.02 308.171L1081.96 398.641L1082.02 398.744C1083.07 400.716 1085.34 401.708 1087.49 401.138L1180.07 377.004C1179.34 373.88 1176.24 371.919 1173.1 372.581Z" fill="#428DFC"/>
<path d="M1049.33 506.656C1049.33 506.656 1043.12 519.481 1038.52 522.399L1025.88 525.398C1019.94 526.104 1017.95 530.391 1017.95 530.391L1051.37 545.849L1067.44 514.476L1049.33 506.656Z" fill="black"/>
<path d="M1222.47 395.232C1222.47 395.232 1142.91 398.219 1105.59 403.885C1094.79 405.527 1085.45 412.298 1080.43 422L1036.52 506.827L1075.41 527.279L1120.44 445.769L1202.31 443.329L1222.47 395.232Z" fill="white" stroke="black" stroke-miterlimit="10" stroke-linecap="round" stroke-linejoin="round"/>
<path d="M1225.6 375.955C1224.57 379.409 1222.99 382.704 1220.76 385.542C1202.13 409.197 1163.51 380.287 1131.94 380.526C1127.59 380.561 1123.72 380.64 1122.79 382.043C1121.21 384.391 1119.36 387.777 1118.22 387.686C1116.91 387.572 1118.96 382.966 1120.12 379.5C1120.12 379.5 1116.23 389.088 1114.81 388.563C1113.09 387.925 1117.48 377.004 1117.48 377.004C1117.48 377.004 1111.89 388.187 1110.45 386.454C1109.02 384.722 1115.09 374.769 1115.09 374.769C1115.09 374.769 1109.35 383.639 1107.5 382.749C1106.01 382.02 1110.87 375.271 1115.88 369.924C1118.84 366.767 1122.7 364.589 1126.96 363.78C1131.03 363.005 1137.02 362.526 1145.57 363.153C1145.57 363.153 1177.46 366.71 1204.02 371.03L1214.32 323.401C1215.58 317.541 1220.02 312.742 1225.87 311.397C1230.44 310.348 1235.58 310.815 1238.95 316.139C1241.35 319.924 1241.75 324.632 1240.4 328.907L1225.6 375.955Z" fill="white" stroke="black" stroke-miterlimit="10" stroke-linecap="round" stroke-linejoin="round"/>
<path d="M1125.19 525.591C1125.19 525.591 1133.94 541.654 1133.49 547.092L1128.28 559.005C1125.27 564.18 1127.51 568.33 1127.51 568.33L1159.95 550.934L1144.5 519.116L1125.19 525.591Z" fill="black"/>
<path d="M1230.47 385.143C1230.47 385.143 1119.32 378.566 1087.3 408.719C1061.49 433.023 1118.41 537.459 1118.41 537.459L1158.91 520.404L1125.99 446.795L1220.58 445.563C1220.58 445.563 1259.03 434.574 1249.13 385.143H1230.47V385.143Z" fill="white" stroke="black" stroke-miterlimit="10" stroke-linecap="round" stroke-linejoin="round"/>
<path d="M1286.41 308.524C1286.41 308.524 1288.78 296.36 1275.07 291.378C1262.79 286.921 1261.65 274.29 1261.65 274.29C1261.65 274.29 1257.73 264.406 1246.66 265.033C1235.59 265.649 1241.15 246.896 1222.3 243.168C1219.47 242.609 1216.86 243.738 1214.58 245.642C1207.58 251.478 1206.44 261.818 1211.43 269.433L1237.1 308.513H1286.41V308.524Z" fill="black" stroke="black" stroke-miterlimit="10" stroke-linecap="round" stroke-linejoin="round"/>
<path d="M1215.2 319.024L1203.1 288.871L1213.63 273.937L1239.6 312.218L1215.2 319.024Z" fill="white" stroke="black" stroke-miterlimit="10" stroke-linecap="round" stroke-linejoin="round"/>
<path d="M1207.79 298.549L1213.05 290.079L1205.21 292.29L1207.79 298.549Z" fill="black" stroke="black" stroke-miterlimit="10" stroke-linecap="round" stroke-linejoin="round"/>
<path d="M1234.11 253.097C1240.6 265.683 1229.35 284.39 1215.98 291.287C1202.61 298.184 1191.97 293.693 1186.92 280.469C1182.22 268.122 1184.78 249.7 1198.14 242.803C1211.51 235.906 1227.61 240.512 1234.11 253.097Z" fill="white" stroke="black" stroke-miterlimit="10" stroke-linecap="round" stroke-linejoin="round"/>
<path d="M1235.43 256.631C1231.2 243.316 1217.75 236.818 1203.25 240.819C1191.84 243.977 1184.48 255.126 1183.71 266.378C1183.87 266.424 1192.92 266.139 1196.79 256.107C1196.79 256.107 1197.86 272.249 1214.89 269.114L1222.46 286.91C1232.54 282.247 1240.13 271.372 1235.43 256.631Z" fill="black" stroke="black" stroke-miterlimit="10" stroke-linecap="round" stroke-linejoin="round"/>
<path d="M1200.13 284.926C1200.13 284.926 1203.78 284.653 1204.37 280.537Z" fill="white"/>
<path d="M1200.13 284.926C1200.13 284.926 1203.78 284.653 1204.37 280.537" stroke="black" stroke-miterlimit="10" stroke-linecap="round" stroke-linejoin="round"/>
<path d="M1216.75 281.267C1218.37 280.799 1219.89 279.693 1220.94 278.063C1223.05 274.803 1222.46 270.687 1219.63 268.852C1217.7 267.609 1215.7 268.054 1213.95 269.49" fill="white"/>
<path d="M1216.75 281.267C1218.37 280.799 1219.89 279.693 1220.94 278.063C1223.05 274.803 1222.46 270.687 1219.63 268.852C1217.7 267.609 1215.7 268.054 1213.95 269.49" stroke="black" stroke-miterlimit="10" stroke-linecap="round" stroke-linejoin="round"/>
<path d="M1214.58 277.037C1214.58 277.037 1215.37 273.879 1218.15 274.472Z" fill="white"/>
<path d="M1214.58 277.037C1214.58 277.037 1215.37 273.879 1218.15 274.472" stroke="black" stroke-miterlimit="10" stroke-linecap="round" stroke-linejoin="round"/>
<path d="M1224.27 240.135C1224.54 244.958 1228.67 248.64 1233.48 248.366C1238.3 248.093 1241.99 243.966 1241.71 239.155C1241.44 234.333 1237.31 230.651 1232.5 230.924C1227.69 231.198 1224.01 235.325 1224.27 240.135Z" fill="black" stroke="black" stroke-miterlimit="10" stroke-linecap="round" stroke-linejoin="round"/>
<path d="M1209.13 309.744L1234.86 300.555C1234.86 300.555 1265.71 351.764 1266.82 385.816C1266.82 385.816 1230.47 385.143 1199.18 384.79L1209.13 309.744Z" fill="black"/>
<path d="M1215.42 324.758H1225.79" stroke="white" stroke-miterlimit="10" stroke-linecap="round" stroke-linejoin="round"/>
<path d="M1220.61 314.395L1230.27 310.382" stroke="white" stroke-miterlimit="10" stroke-linecap="round" stroke-linejoin="round"/>
<path d="M1236.87 313.449V324.758" stroke="white" stroke-miterlimit="10" stroke-linecap="round" stroke-linejoin="round"/>
<path d="M1231.92 338.415L1238.75 331.347" stroke="white" stroke-miterlimit="10" stroke-linecap="round" stroke-linejoin="round"/>
<path d="M1218.25 337.001L1217.08 345.483" stroke="white" stroke-miterlimit="10" stroke-linecap="round" stroke-linejoin="round"/>
<path d="M1226.97 348.789L1236.87 350.67" stroke="white" stroke-miterlimit="10" stroke-linecap="round" stroke-linejoin="round"/>
<path d="M1245.11 349.724L1251.71 343.135" stroke="white" stroke-miterlimit="10" stroke-linecap="round" stroke-linejoin="round"/>
<path d="M1231.92 358.445L1238.75 363.86" stroke="white" stroke-miterlimit="10" stroke-linecap="round" stroke-linejoin="round"/>
<path d="M1238.75 375.328H1249.11" stroke="white" stroke-miterlimit="10" stroke-linecap="round" stroke-linejoin="round"/>
<path d="M1243.94 364.954L1253.59 360.953" stroke="white" stroke-miterlimit="10" stroke-linecap="round" stroke-linejoin="round"/>
<path d="M1260.18 364.019V375.328" stroke="white" stroke-miterlimit="10" stroke-linecap="round" stroke-linejoin="round"/>
<path d="M1255.24 388.985L1262.07 381.917" stroke="white" stroke-miterlimit="10" stroke-linecap="round" stroke-linejoin="round"/>
<path d="M1241.58 387.572L1240.4 396.053" stroke="white" stroke-miterlimit="10" stroke-linecap="round" stroke-linejoin="round"/>
<path d="M1250.3 399.359L1260.18 401.24" stroke="white" stroke-miterlimit="10" stroke-linecap="round" stroke-linejoin="round"/>
<path d="M1268.43 400.294L1275.02 393.705" stroke="white" stroke-miterlimit="10" stroke-linecap="round" stroke-linejoin="round"/>
<path d="M1255.24 409.015L1262.07 414.43" stroke="white" stroke-miterlimit="10" stroke-linecap="round" stroke-linejoin="round"/>
<path d="M1192.15 353.851H1202.51" stroke="white" stroke-miterlimit="10" stroke-linecap="round" stroke-linejoin="round"/>
<path d="M1197.32 343.488L1206.98 339.475" stroke="white" stroke-miterlimit="10" stroke-linecap="round" stroke-linejoin="round"/>
<path d="M1208.63 367.519L1215.46 360.451" stroke="white" stroke-miterlimit="10" stroke-linecap="round" stroke-linejoin="round"/>
<path d="M1194.97 366.105L1193.79 374.587" stroke="white" stroke-miterlimit="10" stroke-linecap="round" stroke-linejoin="round"/>
<path d="M1203.68 377.882L1213.58 379.763" stroke="white" stroke-miterlimit="10" stroke-linecap="round" stroke-linejoin="round"/>
<path d="M1221.82 378.828L1228.42 372.227" stroke="white" stroke-miterlimit="10" stroke-linecap="round" stroke-linejoin="round"/>
<path d="M1208.63 387.538L1215.46 392.953" stroke="white" stroke-miterlimit="10" stroke-linecap="round" stroke-linejoin="round"/>
<path d="M1196.4 390.274C1194.32 393.226 1191.8 395.871 1188.79 397.855C1163.68 414.453 1136.08 374.895 1106.04 365.205C1101.89 363.871 1098.2 362.731 1096.88 363.769C1094.64 365.513 1091.81 368.146 1090.77 367.69C1089.56 367.177 1092.95 363.438 1095.14 360.52C1095.14 360.52 1088.44 368.397 1087.25 367.462C1085.82 366.311 1093.41 357.328 1093.41 357.328C1093.41 357.328 1084.6 366.185 1083.78 364.088C1082.96 361.99 1091.85 354.443 1091.85 354.443C1091.85 354.443 1083.61 361.055 1082.14 359.63C1080.94 358.468 1087.69 353.588 1094.12 350.089C1097.92 348.014 1102.27 347.159 1106.57 347.729C1110.67 348.276 1116.51 349.69 1124.43 352.973C1124.43 352.973 1153.6 366.368 1177.45 378.805L1202.19 336.819C1205.23 331.643 1210.96 328.497 1216.93 329.056C1221.6 329.489 1226.33 331.552 1227.87 337.674C1228.96 342.017 1227.85 346.612 1225.24 350.248L1196.4 390.274Z" fill="white" stroke="black" stroke-miterlimit="10" stroke-linecap="round" stroke-linejoin="round"/>
<path d="M1178.44 367.496L1207.01 387.686C1207.01 387.686 1252.6 330.275 1231.54 316.413C1211.67 303.337 1178.44 367.496 1178.44 367.496Z" fill="black" stroke="black" stroke-miterlimit="10" stroke-linecap="round" stroke-linejoin="round"/>
<path d="M1215.42 324.758H1225.79" stroke="white" stroke-miterlimit="10" stroke-linecap="round" stroke-linejoin="round"/>
<path d="M1220.61 314.395L1230.27 310.382" stroke="white" stroke-miterlimit="10" stroke-linecap="round" stroke-linejoin="round"/>
<path d="M1236.87 313.449V324.758" stroke="white" stroke-miterlimit="10" stroke-linecap="round" stroke-linejoin="round"/>
<path d="M1231.92 338.415L1238.75 331.347" stroke="white" stroke-miterlimit="10" stroke-linecap="round" stroke-linejoin="round"/>
<path d="M1218.25 337.001L1217.08 345.483" stroke="white" stroke-miterlimit="10" stroke-linecap="round" stroke-linejoin="round"/>
<path d="M1226.97 348.789L1236.87 350.67" stroke="white" stroke-miterlimit="10" stroke-linecap="round" stroke-linejoin="round"/>
<path d="M1245.11 349.724L1251.71 343.135" stroke="white" stroke-miterlimit="10" stroke-linecap="round" stroke-linejoin="round"/>
<path d="M1231.92 358.445L1238.75 363.86" stroke="white" stroke-miterlimit="10" stroke-linecap="round" stroke-linejoin="round"/>
<path d="M1238.75 375.328H1249.11" stroke="white" stroke-miterlimit="10" stroke-linecap="round" stroke-linejoin="round"/>
<path d="M1243.94 364.954L1253.59 360.953" stroke="white" stroke-miterlimit="10" stroke-linecap="round" stroke-linejoin="round"/>
<path d="M1260.18 364.019V375.328" stroke="white" stroke-miterlimit="10" stroke-linecap="round" stroke-linejoin="round"/>
<path d="M1255.24 388.985L1262.07 381.917" stroke="white" stroke-miterlimit="10" stroke-linecap="round" stroke-linejoin="round"/>
<path d="M1241.58 387.572L1240.4 396.053" stroke="white" stroke-miterlimit="10" stroke-linecap="round" stroke-linejoin="round"/>
<path d="M1250.3 399.359L1260.18 401.24" stroke="white" stroke-miterlimit="10" stroke-linecap="round" stroke-linejoin="round"/>
<path d="M1268.43 400.294L1275.02 393.705" stroke="white" stroke-miterlimit="10" stroke-linecap="round" stroke-linejoin="round"/>
<path d="M1255.24 409.015L1262.07 414.43" stroke="white" stroke-miterlimit="10" stroke-linecap="round" stroke-linejoin="round"/>
<path d="M1192.15 353.851H1202.51" stroke="white" stroke-miterlimit="10" stroke-linecap="round" stroke-linejoin="round"/>
<path d="M1197.32 343.488L1206.98 339.475" stroke="white" stroke-miterlimit="10" stroke-linecap="round" stroke-linejoin="round"/>
<path d="M1208.63 367.519L1215.46 360.451" stroke="white" stroke-miterlimit="10" stroke-linecap="round" stroke-linejoin="round"/>
<path d="M1194.97 366.105L1193.79 374.587" stroke="white" stroke-miterlimit="10" stroke-linecap="round" stroke-linejoin="round"/>
<path d="M1203.68 377.882L1213.58 379.763" stroke="white" stroke-miterlimit="10" stroke-linecap="round" stroke-linejoin="round"/>
<path d="M1221.82 378.828L1228.42 372.227" stroke="white" stroke-miterlimit="10" stroke-linecap="round" stroke-linejoin="round"/>
<path d="M1208.63 387.538L1215.46 392.953" stroke="white" stroke-miterlimit="10" stroke-linecap="round" stroke-linejoin="round"/>
<path d="M1284.86 262.4C1289.08 269.433 1299.57 270.368 1306.75 266.401C1313.93 262.434 1318.43 255.001 1322.14 247.682C1327.94 236.214 1311.23 240.603 1317.96 256.814C1320.73 263.494 1325.71 270.357 1332.91 270.984C1343.17 271.873 1349.37 260.484 1355.39 252.128C1359.51 246.417 1364.49 234.903 1371.14 233.786C1381.18 232.098 1381.53 246.679 1382.62 250.68C1383.7 254.682 1386.31 258.911 1390.43 259.401C1395.38 259.983 1398.95 255.092 1402.53 251.615C1410.51 243.875 1423.59 242.005 1433.42 247.192" stroke="black" stroke-miterlimit="10" stroke-linecap="round" stroke-linejoin="round"/>
<path d="M224 142C235.6 165.83 266.12 178.51 291.19 169.9C294.98 168.6 298.72 166.81 301.41 163.85C304.1 160.89 305.55 156.55 304.24 152.76C302.33 147.23 294.91 144.99 289.59 147.41C284.26 149.84 281.13 155.69 280.48 161.51C279.01 174.78 289 187.33 301.29 192.52C313.58 197.72 327.57 196.95 340.72 194.66" stroke="black" stroke-miterlimit="10" stroke-linecap="round" stroke-linejoin="round"/>
<path d="M323.18 184.59L340.73 194.67L328.12 210.14" stroke="black" stroke-miterlimit="10" stroke-linecap="round" stroke-linejoin="round"/>
<path d="M322.7 456.09C326.4 462.26 335.6 463.08 341.9 459.6C348.2 456.12 352.15 449.6 355.4 443.18C360.49 433.12 345.83 436.97 351.73 451.19C354.16 457.05 358.53 463.07 364.85 463.62C373.85 464.4 379.29 454.41 384.57 447.08C388.18 442.07 392.55 431.97 398.38 430.99C407.19 429.51 407.5 442.3 408.45 445.81C409.4 449.32 411.69 453.03 415.3 453.46C419.65 453.97 422.78 449.68 425.92 446.63C432.92 439.84 444.39 438.2 453.01 442.75" stroke="black" stroke-miterlimit="10" stroke-linecap="round" stroke-linejoin="round"/>
<path d="M177.856 482H84V653.331H177.856V482Z" fill="#428DFC"/>
<circle cx="113.212" cy="644.696" r="6.5" fill="black"/>
<circle cx="151.212" cy="645.696" r="6.5" fill="black"/>
<circle cx="96.2119" cy="495.696" r="6.5" fill="black"/>
<circle cx="114.212" cy="525.696" r="6.5" fill="black"/>
<circle cx="135.212" cy="495.696" r="6.5" fill="black"/>
<circle cx="152.212" cy="526.696" r="6.5" fill="black"/>
<circle cx="166.212" cy="495.696" r="6.5" fill="black"/>
<circle cx="96.2119" cy="560.696" r="6.5" fill="black"/>
<circle cx="114.212" cy="590.696" r="6.5" fill="black"/>
<circle cx="135.212" cy="560.696" r="6.5" fill="black"/>
<circle cx="152.212" cy="591.696" r="6.5" fill="black"/>
<circle cx="166.212" cy="560.696" r="6.5" fill="black"/>
<circle cx="95.2119" cy="614.696" r="6.5" fill="black"/>
<circle cx="134.212" cy="614.696" r="6.5" fill="black"/>
<circle cx="165.212" cy="614.696" r="6.5" fill="black"/>
<path d="M260.33 559H178V652.44H260.33V559Z" fill="white" stroke="black" stroke-miterlimit="10" stroke-linecap="round" stroke-linejoin="round"/>
<path d="M148.001 406.194L180.012 368.093H148.001V406.194Z" stroke="#9A8CF3" stroke-miterlimit="10" stroke-linecap="round" stroke-linejoin="round"/>
<path d="M290.7 368.073V268H148V345.257V368.073V368.093H180.011L180.032 368.073H290.7Z" stroke="black" stroke-miterlimit="10" stroke-linecap="round" stroke-linejoin="round"/>
<path d="M182.65 303.401H264.495" stroke="black" stroke-miterlimit="10" stroke-linecap="round" stroke-linejoin="round"/>
<path d="M182.65 333.402H244.297" stroke="black" stroke-miterlimit="10" stroke-linecap="round" stroke-linejoin="round"/>
<path d="M1226.98 100.36C1227.48 109.462 1218.06 117.71 1209.13 115.975C1198.75 113.938 1193.71 102.296 1185.66 95.4314C1182.08 92.3638 1177.26 90.1259 1172.7 91.3328C1170.57 91.886 1168.69 93.1432 1167.03 94.5513C1160.79 99.882 1157.23 107.652 1152.89 114.642C1148.53 121.632 1142.49 128.446 1134.39 129.779C1126.52 131.061 1118.59 126.611 1113.51 120.425C1108.44 114.24 1105.68 106.52 1103 98.9768" stroke="black" stroke-miterlimit="10" stroke-linecap="round" stroke-linejoin="round"/>
<path d="M140.28 7.14C140.28 10.53 137.53 13.28 134.14 13.28C130.75 13.28 128 10.53 128 7.14C128 3.75 130.75 1 134.14 1C137.53 1 140.28 3.75 140.28 7.14Z" stroke="black" stroke-miterlimit="10" stroke-linecap="round" stroke-linejoin="round"/>
<path d="M353.28 19.14C353.28 22.53 350.53 25.28 347.14 25.28C343.75 25.28 341 22.53 341 19.14C341 15.75 343.75 13 347.14 13C350.53 13 353.28 15.75 353.28 19.14Z" stroke="black" stroke-miterlimit="10" stroke-linecap="round" stroke-linejoin="round"/>
<path d="M1217.28 73.14C1217.28 76.53 1214.53 79.28 1211.14 79.28C1207.75 79.28 1205 76.53 1205 73.14C1205 69.75 1207.75 67 1211.14 67C1214.53 67 1217.28 69.75 1217.28 73.14Z" stroke="black" stroke-miterlimit="10" stroke-linecap="round" stroke-linejoin="round"/>
</svg>
